<svg width="38" height="40" viewBox="0 0 38 40" fill="none" xmlns="http://www.w3.org/2000/svg">
<path id="Vector" d="M37.9952 35.5556L37.4332 36.7568L36.9597 37.6505L36.6416 38.1069L36.455 38.2919L36.058 38.6354L35.8021 38.7892L35.2473 39.0967L34.8861 39.2601L34.4939 39.4186L34.195 39.5027L33.9869 39.5363L33.7669 39.57L33.6353 39.5844L33.3579 39.6108L33.1929 39.6228L32.8413 39.6468L32.6357 39.6565L32.198 39.6757L31.9421 39.6829L31.404 39.6973L31.0907 39.7045L30.4378 39.7165L30.0647 39.7213L29.2803 39.7309L28.8354 39.7333L27.9099 39.7405L27.3885 39.7429L26.3051 39.7453L25.7 39.7477L24.4445 39.7502H23.7485L22.3064 39.7526H21.5124L19.8693 39.755H18.9701L4.1255 39.7598L2.83882 39.0991L2.28158 38.77L1.89892 38.5057L1.71477 38.3616L1.36082 38.0709L1.20775 37.9267L0.923154 37.6432L0.822708 37.5159L0.0932721 36.5934L0.0263075 24.9658L0.0167411 23.0078L0.00956636 21.8186L0.00717477 21.2805L0.00239159 20.2378V19.767L0 18.8589V18.4529V17.6697L0.00239159 17.3213L0.00478318 16.6535L0.00717477 16.358L0.0143495 15.791L0.0191327 15.5435L0.0286991 15.0727L0.0358739 14.8661L0.0502234 14.4769L0.0573982 14.3087L0.0765309 13.9916L0.0860973 13.8571L0.133929 13.3742L0.16502 13.1988L0.234376 12.8865L0.275033 12.7664L0.365914 12.5429L0.42092 12.4348L0.913588 11.6468L1.10013 11.397L1.19101 11.2913L1.36799 11.0895L1.44452 11.0198L1.70999 10.8156L2.03046 10.585L2.25527 10.4264L2.74555 10.0829L3.0445 9.87628L3.68066 9.43664L4.04657 9.18679L4.8071 8.66547L5.22802 8.37958L6.09138 7.7958L6.55296 7.48108L7.49764 6.84444L7.9927 6.51291L8.99478 5.84024L9.51136 5.49429L17.0162 0.48048L17.4586 0.24024L17.9369 0.12012L18.4153 0H18.8936H19.4915L19.9698 0.12012L20.4481 0.24024L20.9073 0.48048L28.7972 5.76577L30.1556 6.67868L30.9807 7.23123L31.3514 7.48108L32.0712 7.96637L32.3941 8.18499L33.0183 8.60781L33.2957 8.7976L33.8315 9.16276L34.0682 9.32853L34.5226 9.64565L34.7211 9.78739L35.1038 10.0589L35.2688 10.1814L35.5845 10.4168L35.7208 10.5201L36.2111 10.9117L36.3905 11.0727L36.7061 11.3778L36.8209 11.5147L37.0242 11.7814L37.1079 11.9183L37.261 12.197L37.3423 12.3556L38 13.6601V40M11.4964 33.994L11.3888 35.3754L11.2596 36.5093L11.207 36.8432L11.1783 36.9778L11.1257 37.2228L11.0994 37.2973L10.92 37.8378H18.8242L20.1157 37.8354L20.9097 37.833H21.2756L21.9859 37.8282L22.3112 37.8234L22.9425 37.8162L23.2271 37.8138L23.782 37.8018L24.0307 37.797L24.509 37.785L24.7219 37.7778L25.1308 37.761L25.3102 37.7514L25.6546 37.7321L25.8005 37.7201L26.3266 37.6721L26.5036 37.6432L26.8002 37.5784L26.8719 37.5375L26.9652 37.4535L26.9437 37.4054L26.8624 37.2997L26.7643 37.2396L26.6686 37.0595L26.6136 36.8336L26.5921 36.6775L26.5515 36.3459L26.5395 36.1538L26.5204 35.755V33.994M18.5827 2.3015L18.3172 2.33994L18.1641 2.38559L17.8437 2.4985L17.6428 2.59459L17.2051 2.81562L16.9205 2.97898L16.624 3.15195L16.4565 3.25526L16.105 3.47147L15.9065 3.5964L15.4951 3.85826L15.2607 4.00961L14.78 4.32192L14.5098 4.4997L13.9478 4.86727L13.6369 5.07387L12.9887 5.5039L12.6324 5.74174L11.891 6.23423L11.4844 6.50811L10.6426 7.07027L10.181 7.37778L8.3921 8.58138L7.3111 9.31652L6.82799 9.64805L5.90006 10.2895L5.49349 10.5754L4.71622 11.1231L4.38618 11.3634L3.75958 11.8198L3.50368 12.0144L3.03015 12.3772L2.85078 12.5261L2.52791 12.7976L2.42507 12.8985L2.25288 13.0763L2.22657 13.1315L2.13091 13.4174L2.07829 13.7033L2.05677 13.9075L2.01372 14.3616L1.99698 14.6643L1.96589 15.3273L1.95154 15.7526L1.93958 16.1922L1.9348 16.4372L1.92523 16.9465L1.92045 17.23L1.91327 17.8138L1.90849 18.1357L1.90371 18.7964L1.90132 19.1592L1.89653 19.9063L1.89414 20.3147L1.89175 21.1508L1.88936 21.6048V22.5369L1.88697 23.039V24.0697V24.6246V26.7724V28.0649L1.88936 28.6462L1.89175 29.7658L1.89414 30.2679L1.90371 31.2288L1.90849 31.6541L1.92284 32.4709L1.93241 32.8288L1.95393 33.5135L1.96828 33.809L1.99937 34.376L2.0209 34.6186L2.06394 35.0775L2.09025 35.2721L2.14765 35.6396L2.18113 35.7934L2.25527 36.0817L2.29593 36.1994L2.48486 36.6126L2.60923 36.7544L2.87708 36.997L3.04689 37.0931L3.4128 37.2733L3.63761 37.3766L3.96765 37.5111L4.15419 37.564L4.53685 37.6625L4.73774 37.6985L5.55806 37.8042L5.93115 37.8018L6.29228 37.7898L6.45012 37.7706L6.74668 37.7249L6.86148 37.6865L7.06237 37.6048L7.11498 37.5496L7.19152 37.4294L7.17238 37.3574L7.12455 37.1003L7.08868 36.8336L7.07194 36.6655L6.99541 35.9183L6.96431 35.5075L6.8543 34.018L4.87646 33.8739L4.81667 29.6697L4.8071 28.8288L4.80232 28.3195V28.0865V27.2192L4.81427 26.8637L4.84058 26.203L4.86928 25.9363L4.93385 25.4438L4.98408 25.2468L5.09648 24.8793L5.1754 24.7279L5.34521 24.4468L5.45522 24.3243L5.69438 24.0889L5.84266 23.9736L6.15835 23.7405L6.34968 23.6108L6.88778 23.1928L7.17956 22.8829L7.3111 22.6835L7.56939 22.2462L7.71049 21.9483L7.85159 21.6336L7.93052 21.4511L8.09075 21.0643L8.17924 20.8432L8.9589 18.9477L9.21959 18.3255L9.33677 18.0517L9.55919 17.5351L9.6429 17.3429L9.97055 16.6414L10.1882 16.2619L10.3197 16.1129L10.6091 15.8414L10.8076 15.7381L11.2453 15.5556L11.5466 15.4931L11.8647 15.4354L12.0488 15.4114L12.4339 15.3682L12.6563 15.3514L13.1203 15.3225L13.3857 15.3105L13.9382 15.2937L14.2491 15.2889L14.8996 15.2817L15.2655 15.2793H16.0237L16.4446 15.2817L17.3199 15.2865L17.803 15.2913L18.8051 15.3009L19.3552 15.3057L26.75 15.3754L27.3192 15.976L27.4626 16.1634L27.5798 16.3483L27.6468 16.4661L27.9457 17.009L28.1203 17.3598L28.4839 18.1045L28.6776 18.5273L29.0626 19.3922L29.2492 19.8414L29.6677 20.8336L29.9045 21.3838L30.0073 21.612L30.201 22.0348L30.2871 22.2054L30.4521 22.5225L30.5263 22.6474L30.6722 22.8781L30.7439 22.967L30.885 23.1327L30.9592 23.1976L31.2605 23.4162L31.4494 23.5075L31.8584 23.7526L32.0976 23.9471L32.2028 24.0673L32.4061 24.3195L32.4993 24.4709L32.6763 24.788L32.76 24.9754L33.0064 25.6649L33.0638 25.9147L33.0853 26.0541L33.1235 26.3496L33.1379 26.5225L33.1618 26.8901L33.169 27.1111L33.1809 27.5748L33.1833 27.8535V28.442L33.1786 28.7904L33.1714 29.5255L33.1642 29.958L33.0972 33.8739L31.9804 33.9459L30.8659 34.018L30.7726 35.5075L30.6769 36.6655L30.6411 36.9802L30.6243 37.1003L30.5885 37.3069L30.5741 37.3574L30.5837 37.5375L30.6769 37.6264L30.775 37.6577L31.0142 37.7153L31.1983 37.7345L31.6145 37.7706L31.9014 37.7826L33.0901 37.7321L33.7788 37.588L34.0754 37.4559L34.6422 37.1556L34.8861 36.9441L35.3453 36.4781L35.5438 36.1802L36.0867 35.3634V24.6246V13.8859L35.5486 13.0907L35.3047 12.8264L35.0273 12.579L34.8335 12.4228L34.4078 12.0841L34.1424 11.8823L33.5732 11.4571L33.2383 11.2096L32.5304 10.6979L32.1239 10.412L31.282 9.81622L30.8085 9.48949L29.8351 8.81441L29.2994 8.44685L28.1945 7.6973L27.5966 7.29129L26.3314 6.43844L25.5637 5.92192L25.2146 5.68889L24.5425 5.23724L24.2388 5.03303L23.6528 4.64384L23.3898 4.46847L22.8827 4.13453L22.6555 3.98799L22.2203 3.7045L22.0266 3.58198L21.6559 3.34895L21.4908 3.24805L21.1752 3.05586L21.0364 2.97417L20.5294 2.69069L20.3309 2.59459L19.9626 2.43363L19.8143 2.38799L19.2786 2.28709L18.9916 2.28468M14.505 28.7087L14.859 29.2493L15.0981 29.5111L15.3349 29.7153L15.4808 29.8258L16.1265 30.2679L16.4709 30.4505L17.2123 30.7916L17.5925 30.8997L18.3602 31.0751L18.7429 31.1015L19.5082 31.1087L19.8813 31.0462L20.6203 30.8829L20.9671 30.7387L21.687 30.3447L22.1844 30.0012L22.4044 29.8186L22.8158 29.4535L22.9521 29.2925L23.0765 29.1387L23.1147 29.0739L23.1721 28.9489V28.9033L23.0836 28.8649L22.9401 28.8408L22.8301 28.8288L22.5862 28.8048L22.4283 28.7952L22.0959 28.776L21.8998 28.7664L21.4885 28.7495L21.2565 28.7423L20.7805 28.7279L20.5199 28.7231L19.4341 28.7087M8.66952 25.6096L8.40644 25.6841L8.15054 25.7706L8.04053 25.833L7.83485 25.9676L7.75593 26.0541L7.52156 26.4024L7.50003 26.4817L7.5096 26.5081L7.54069 26.5465H7.57656L7.80376 26.4769L7.94487 26.3712L7.98552 26.3063L8.12185 26.191L8.25817 26.1333L8.34426 26.1141L8.7317 26.0661L8.95412 26.0757L9.41091 26.1237L9.62137 26.1814L10.0208 26.3183L10.1523 26.4192L10.468 26.6426L10.5804 26.6979L10.7765 26.7748L10.8243 26.758L10.8865 26.6907L10.8626 26.6066L10.7789 26.4L10.6785 26.2462L10.4321 25.9892L10.2193 25.8474L10.0949 25.7946L9.5568 25.6216L9.26263 25.6024M28.6537 25.4559L28.4312 25.4799L28.3021 25.5183L28.0223 25.612L27.8477 25.6865L27.2474 26.018L27.1087 26.1333L27.0656 26.1838L26.9987 26.2823V26.3207L27.0369 26.4601L27.1111 26.4769L27.2857 26.4745L27.4172 26.4192L28.0342 26.2126L28.4408 26.1333L28.6321 26.1237L29.0076 26.1261L29.1774 26.155L29.4979 26.2366L29.6294 26.3063L29.8901 26.436L30.0049 26.4769L30.0384 26.4745L30.0862 26.4529L30.0886 26.4192L30.079 26.3351L30.0575 26.2703L29.7992 25.9508L29.4979 25.7225L29.3233 25.6384L28.9717 25.4967L28.7613 25.4511M16.4231 17.1123L15.6027 17.1171L15.2344 17.1219L14.5241 17.1315L14.2156 17.1387L13.6273 17.1556L13.381 17.1652L12.9218 17.1892L12.7424 17.2012L12.4171 17.23L12.3095 17.2444L12.1278 17.2781L12.0943 17.2973L11.8527 17.5712L11.6375 17.9099L11.5107 18.1381L11.2548 18.6306L11.1185 18.9141L10.8483 19.5051L10.7191 19.8198L10.291 20.8649L10.0614 21.4222L9.97533 21.6432L9.82227 22.0444L9.76965 22.1958L9.68355 22.4649L9.66442 22.5634L9.64051 22.7315L9.65007 22.7868L9.68116 22.8805L9.71704 22.9093L9.90836 22.9814L10.0686 23.0126L10.2528 23.0342L10.4297 23.0438L10.8435 23.0655L11.1233 23.0727L11.7308 23.0895L12.0991 23.0967L12.8692 23.1111L13.3044 23.1159L14.2084 23.1255L14.6963 23.1303L15.6984 23.1375L16.2246 23.1399L18.3889 23.1471H19.4915L21.6941 23.1447L22.7201 23.1375L23.727 23.1303L24.1957 23.1255L25.1093 23.1159L25.5183 23.1087L26.3003 23.0967L26.6352 23.0895L27.257 23.0727L27.4985 23.0655L27.929 23.0462L28.0605 23.0366L28.2662 23.015L28.271 23.003L28.2686 22.9093L28.2423 22.794L28.2184 22.7099L28.0964 22.3207L27.9984 22.0492L27.7807 21.4607L27.642 21.1147L27.3526 20.394L27.19 20.0072L26.0038 17.1916L19.2667 17.1243L17.7695 17.1147L16.8464 17.1123H16.4231Z" fill="white"/>
</svg>
