<svg width="179" height="46" viewBox="0 0 179 46" fill="none" xmlns="http://www.w3.org/2000/svg">
<path d="M42.9134 40.1579L42.2786 41.5146L41.7438 42.524L41.3845 43.0395L41.1738 43.2485L40.7255 43.6365L40.4364 43.8101L39.8098 44.1575L39.4019 44.342L38.9589 44.521L38.6212 44.616L38.3862 44.654L38.1377 44.692L37.9892 44.7083L37.6758 44.7381L37.4895 44.7517L37.0924 44.7788L36.8601 44.7897L36.3658 44.8114L36.0768 44.8195L35.469 44.8358L35.1151 44.8439L34.3777 44.8575L33.9563 44.8629L33.0704 44.8738L32.5679 44.8765L31.5226 44.8846L30.9337 44.8873L29.7101 44.8901L29.0267 44.8928L27.6086 44.8955H26.8226L25.1938 44.8982H24.297L22.4413 44.9009H21.4256L4.65951 44.9063L3.20628 44.1602L2.57691 43.7884L2.14472 43.49L1.93673 43.3272L1.53696 42.9988L1.36409 42.836L1.04265 42.5159L0.929201 42.3721L0.105345 41.3301L0.0297128 28.1974L0.0189081 25.986L0.0108046 24.6429L0.00810349 24.0351L0.00270116 22.8575V22.3256L0 21.3V20.8414V19.9569L0.00270116 19.5634L0.00540232 18.8091L0.00810349 18.4754L0.016207 17.835L0.0216093 17.5555L0.032414 17.0237L0.0405175 16.7904L0.0567245 16.3508L0.0648279 16.1609L0.0864372 15.8027L0.0972419 15.6507L0.151265 15.1054L0.18638 14.9073L0.264714 14.5545L0.310634 14.4189L0.413278 14.1665L0.475405 14.0444L1.03184 13.1544L1.24254 12.8722L1.34518 12.7529L1.54507 12.5249L1.6315 12.4462L1.93133 12.2156L2.29329 11.9551L2.5472 11.776L3.10094 11.388L3.43858 11.1547L4.15709 10.6581L4.57037 10.3759L5.42934 9.78714L5.90475 9.46425L6.87987 8.8049L7.40119 8.44945L8.46815 7.7304L9.02729 7.35596L10.1591 6.59621L10.7425 6.20549L19.2188 0.542675L19.7185 0.271337L20.2587 0.135669L20.799 0H21.3392H22.0145L22.5547 0.135669L23.095 0.271337L23.6136 0.542675L32.5247 6.5121L34.059 7.54318L34.9909 8.16726L35.4096 8.44945L36.2226 8.99755L36.5873 9.24447L37.2923 9.72202L37.6056 9.93638L38.2107 10.3488L38.4781 10.536L38.9913 10.8942L39.2155 11.0543L39.6477 11.3609L39.8341 11.4993L40.1906 11.7652L40.3446 11.8819L40.8983 12.3241L41.1009 12.5059L41.4575 12.8505L41.5871 13.0052L41.8167 13.3064L41.9113 13.461L42.0841 13.7758L42.176 13.9549L42.9188 15.4282V45.1777M12.9845 38.3942L12.8629 39.9544L12.7171 41.2351L12.6577 41.6123L12.6252 41.7643L12.5658 42.041L12.5361 42.1251L12.3335 42.7356H21.2609L22.7195 42.7329L23.6163 42.7302H24.0296L24.8318 42.7248L25.1992 42.7194L25.9123 42.7112L26.2337 42.7085L26.8604 42.6949L27.1413 42.6895L27.6815 42.6759L27.9219 42.6678L28.3838 42.6488L28.5864 42.638L28.9754 42.6163L29.1402 42.6027L29.7344 42.5484L29.9343 42.5159L30.2692 42.4426L30.3503 42.3965L30.4556 42.3015L30.4313 42.2472L30.3395 42.1278L30.2287 42.06L30.1207 41.8565L30.0586 41.6015L30.0342 41.4251L29.9883 41.0506L29.9748 40.8336L29.9532 40.3831V38.3942M20.988 2.59941L20.6882 2.64283L20.5153 2.69438L20.1534 2.82191L19.9265 2.93044L19.4322 3.18007L19.1107 3.36458L18.7758 3.55995L18.5867 3.67662L18.1896 3.92083L17.9654 4.06192L17.5008 4.35768L17.2361 4.52862L16.6932 4.88136L16.388 5.08215L15.7532 5.4973L15.402 5.73065L14.67 6.21634L14.2675 6.48496L13.4302 7.04121L12.971 7.35053L12.0202 7.98546L11.4989 8.33277L9.47839 9.69217L8.25746 10.5225L7.71182 10.8969L6.66377 11.6214L6.20457 11.9443L5.3267 12.5629L4.95394 12.8343L4.24623 13.3498L3.95721 13.5696L3.42238 13.9793L3.21979 14.1475L2.85513 14.4541L2.73898 14.5681L2.5445 14.7689L2.51478 14.8313L2.40674 15.1542L2.34731 15.4771L2.323 15.7077L2.27438 16.2206L2.25547 16.5624L2.22036 17.3113L2.20415 17.7916L2.19064 18.2881L2.18524 18.5649L2.17444 19.1401L2.16904 19.4603L2.16093 20.1197L2.15553 20.4833L2.15013 21.2294L2.14743 21.6392L2.14202 22.483L2.13932 22.9443L2.13662 23.8885L2.13392 24.4014V25.4542L2.13122 26.0213V27.1853V27.8121V30.2378V31.6976L2.13392 32.3543L2.13662 33.6187L2.13932 34.1858L2.15013 35.2712L2.15553 35.7514L2.17174 36.674L2.18254 37.0783L2.20685 37.8516L2.22306 38.1853L2.25817 38.8257L2.28248 39.0997L2.3311 39.618L2.36082 39.8378L2.42565 40.2529L2.46346 40.4266L2.5472 40.7522L2.59312 40.8851L2.80651 41.3518L2.94697 41.5119L3.2495 41.786L3.44128 41.8945L3.85456 42.098L4.10847 42.2147L4.48123 42.3666L4.69192 42.4263L5.12411 42.5376L5.35101 42.5783L6.27751 42.6977L6.69889 42.6949L7.10676 42.6814L7.28504 42.6597L7.61998 42.6081L7.74964 42.5647L7.97654 42.4724L8.03596 42.41L8.1224 42.2744L8.10079 42.193L8.04677 41.9026L8.00625 41.6015L7.98734 41.4115L7.90091 40.5677L7.86579 40.1037L7.74154 38.4214L5.50767 38.2586L5.44015 33.5102L5.42934 32.5605L5.42394 31.9853V31.7221V30.7425L5.43744 30.341L5.46716 29.5948L5.49957 29.2936L5.5725 28.7373L5.62923 28.5148L5.75618 28.0997L5.84532 27.9288L6.0371 27.6113L6.16136 27.4729L6.43147 27.207L6.59894 27.0768L6.9555 26.8136L7.17159 26.667L7.77935 26.1949L8.10889 25.8449L8.25746 25.6197L8.54918 25.1258L8.70855 24.7894L8.86792 24.4339L8.95706 24.2277L9.13804 23.7909L9.23798 23.5412L10.1186 21.4004L10.413 20.6976L10.5453 20.3883L10.7966 19.8049L10.8911 19.5878L11.2612 18.7955L11.507 18.3668L11.6555 18.1986L11.9824 17.892L12.2066 17.7753L12.7009 17.5691L13.0412 17.4985L13.4005 17.4334L13.6085 17.4063L14.0434 17.3575L14.2946 17.3385L14.8186 17.3059L15.1184 17.2923L15.7424 17.2733L16.0935 17.2679L16.8283 17.2598L17.2415 17.2571H18.0978L18.5732 17.2598L19.5618 17.2652L20.1075 17.2706L21.2393 17.2815L21.8605 17.2869L30.2125 17.3656L30.8554 18.0439L31.0175 18.2556L31.1498 18.4645L31.2255 18.5975L31.5631 19.2107L31.7603 19.6068L32.1709 20.448L32.3897 20.9255L32.8246 21.9024L33.0352 22.4098L33.5079 23.5304L33.7754 24.1517L33.8915 24.4095L34.1103 24.8871L34.2075 25.0797L34.3939 25.4379L34.4777 25.579L34.6424 25.8395L34.7235 25.9399L34.8828 26.1271L34.9666 26.2003L35.3069 26.4473L35.5203 26.5504L35.9822 26.8271L36.2523 27.0469L36.3712 27.1826L36.6008 27.4675L36.7061 27.6384L36.906 27.9966L37.0005 28.2082L37.2788 28.987L37.3436 29.2692L37.3679 29.4265L37.4111 29.7603L37.4273 29.9557L37.4543 30.3708L37.4625 30.6204L37.476 31.1441L37.4787 31.4589V32.1236L37.4733 32.5171L37.4651 33.3474L37.457 33.8358L37.3814 38.2586L36.12 38.34L34.8612 38.4214L34.7559 40.1037L34.6478 41.4115L34.6073 41.767L34.5884 41.9026L34.5479 42.136L34.5317 42.193L34.5425 42.3965L34.6478 42.4969L34.7586 42.5321L35.0287 42.5973L35.2367 42.619L35.7067 42.6597L36.0308 42.6732L37.3733 42.6163L38.1512 42.4535L38.4862 42.3042L39.1264 41.965L39.4019 41.7263L39.9205 41.1999L40.1447 40.8634L40.7579 39.9409V27.8121V15.6833L40.1501 14.7852L39.8746 14.4867L39.5613 14.2072L39.3425 14.0309L38.8617 13.6483L38.5618 13.4203L37.9189 12.9401L37.5408 12.6606L36.7412 12.0827L36.282 11.7598L35.3312 11.0868L34.7964 10.7178L33.697 9.95537L33.092 9.54022L31.844 8.69365L31.1687 8.23509L29.7398 7.27184L28.8727 6.68847L28.4784 6.42527L27.7193 5.91516L27.3763 5.68452L26.7145 5.24495L26.4174 5.04688L25.8447 4.66972L25.5881 4.5042L25.0965 4.18402L24.8777 4.04564L24.459 3.78244L24.2727 3.66848L23.9161 3.45141L23.7594 3.35916L23.1868 3.03898L22.9626 2.93044L22.5466 2.74865L22.3791 2.69709L21.7741 2.58313L21.4499 2.58042M16.3826 32.4248L16.7823 33.0353L17.0525 33.3311L17.3199 33.5617L17.4846 33.6865L18.214 34.1858L18.6029 34.392L19.4403 34.7773L19.8698 34.8994L20.7368 35.0975L21.169 35.1273L22.0334 35.1355L22.4548 35.0649L23.2894 34.8804L23.6811 34.7176L24.4942 34.2726L25.056 33.8846L25.3045 33.6784L25.7691 33.266L25.9231 33.0842L26.0635 32.9105L26.1068 32.8373L26.1716 32.6962V32.6446L26.0716 32.6012L25.9096 32.5741L25.7853 32.5605L25.5098 32.5334L25.3315 32.5225L24.9561 32.5008L24.7346 32.4899L24.27 32.4709L24.0079 32.4628L23.4704 32.4465L23.176 32.4411L21.9497 32.4248M9.79172 28.9246L9.49459 29.0087L9.20557 29.1064L9.08131 29.1769L8.84901 29.3289L8.75988 29.4265L8.49516 29.82L8.47085 29.9095L8.48166 29.9394L8.51677 29.9828H8.55729L8.8139 29.9041L8.97327 29.7847L9.01919 29.7114L9.17315 29.5812L9.32712 29.5161L9.42436 29.4944L9.86195 29.4401L10.1132 29.451L10.6291 29.5052L10.8668 29.5704L11.3179 29.725L11.4664 29.839L11.823 30.0913L11.95 30.1537L12.1714 30.2406L12.2255 30.2216L12.2957 30.1456L12.2687 30.0506L12.1741 29.8173L12.0607 29.6436L11.7825 29.3533L11.5421 29.1932L11.4016 29.1335L10.7939 28.9381L10.4616 28.9164M32.3626 28.7509L32.1114 28.778L31.9656 28.8215L31.6495 28.9273L31.4524 29.0114L30.7744 29.3858L30.6177 29.5161L30.5691 29.5731L30.4934 29.6843V29.7277L30.5367 29.8851L30.6204 29.9041L30.8176 29.9014L30.9661 29.839L31.663 29.6056L32.1222 29.5161L32.3383 29.5052L32.7624 29.5079L32.9542 29.5405L33.3162 29.6328L33.4647 29.7114L33.7592 29.858L33.8888 29.9041L33.9266 29.9014L33.9806 29.877L33.9833 29.839L33.9725 29.744L33.9482 29.6707L33.6565 29.3099L33.3162 29.0521L33.119 28.9571L32.7219 28.797L32.4842 28.7455M18.5489 19.3274L17.6224 19.3328L17.2064 19.3382L16.4042 19.3491L16.0557 19.3572L15.3912 19.3762L15.113 19.3871L14.5944 19.4142L14.3918 19.4278L14.0244 19.4603L13.9029 19.4766L13.6976 19.5146L13.6598 19.5363L13.387 19.8456L13.1439 20.2282L13.0007 20.486L12.7117 21.0422L12.5577 21.3624L12.2525 22.0299L12.1066 22.3853L11.6231 23.5657L11.3638 24.1952L11.2666 24.4448L11.0937 24.8979L11.0343 25.0689L10.937 25.3728L10.9154 25.484L10.8884 25.6739L10.8992 25.7364L10.9343 25.8422L10.9748 25.8747L11.1909 25.9561L11.3719 25.9914L11.5799 26.0158L11.7798 26.0267L12.2471 26.0511L12.5631 26.0592L13.2492 26.0782L13.6652 26.0864L14.535 26.1027L15.0266 26.1081L16.0476 26.1189L16.5987 26.1244L17.7304 26.1325L18.3247 26.1352L20.7693 26.1434H22.0145L24.5023 26.1406L25.6611 26.1325L26.7983 26.1244L27.3277 26.1189L28.3595 26.1081L28.8214 26.0999L29.7047 26.0864L30.0829 26.0782L30.7852 26.0592L31.058 26.0511L31.5442 26.0294L31.6928 26.0185L31.9251 25.9941L31.9305 25.9806L31.9278 25.8747L31.898 25.7445L31.871 25.6495L31.7333 25.21L31.6225 24.9033L31.3767 24.2386L31.2201 23.8478L30.8932 23.0338L30.7095 22.597L29.3698 19.4169L21.7606 19.3409L20.0697 19.3301L19.027 19.3274H18.5489Z" fill="#0C59B3"/>
<path d="M69.2453 37.6353L64.8912 29.7322H63.6685V37.6353H58.5687V16.6996H67.1279C68.7781 16.6996 70.1798 16.9879 71.3329 17.5644C72.506 18.141 73.3808 18.9363 73.9574 19.9503C74.5339 20.9444 74.8222 22.0578 74.8222 23.2904C74.8222 24.6822 74.4246 25.9248 73.6293 27.0183C72.8539 28.1118 71.7008 28.8872 70.1698 29.3445L75.0012 37.6353H69.2453ZM63.6685 26.1236H66.8297C67.7641 26.1236 68.46 25.895 68.9173 25.4377C69.3945 24.9804 69.633 24.3342 69.633 23.4992C69.633 22.7039 69.3945 22.0776 68.9173 21.6204C68.46 21.1631 67.7641 20.9344 66.8297 20.9344H63.6685V26.1236ZM93.4644 29.0463C93.4644 29.5234 93.4346 30.0205 93.375 30.5374H81.8335C81.913 31.5713 82.2411 32.3665 82.8177 32.9232C83.4141 33.46 84.1398 33.7285 84.9947 33.7285C86.2672 33.7285 87.1519 33.1916 87.649 32.118H93.0767C92.7984 33.2115 92.2914 34.1957 91.5558 35.0705C90.84 35.9453 89.9354 36.6312 88.8419 37.1283C87.7484 37.6253 86.5256 37.8738 85.1737 37.8738C83.5433 37.8738 82.092 37.5259 80.8195 36.83C79.5471 36.1342 78.553 35.1401 77.8372 33.8477C77.1215 32.5554 76.7636 31.0444 76.7636 29.3147C76.7636 27.5849 77.1115 26.0739 77.8074 24.7816C78.5232 23.4893 79.5173 22.4952 80.7897 21.7993C82.0621 21.1034 83.5235 20.7555 85.1737 20.7555C86.7841 20.7555 88.2156 21.0935 89.4682 21.7695C90.7207 22.4455 91.6949 23.4097 92.3908 24.6623C93.1065 25.9149 93.4644 27.3762 93.4644 29.0463ZM88.2454 27.7042C88.2454 26.8294 87.9472 26.1336 87.3507 25.6166C86.7543 25.0997 86.0087 24.8412 85.114 24.8412C84.2591 24.8412 83.5334 25.0898 82.9369 25.5868C82.3604 26.0839 82.0025 26.7897 81.8633 27.7042H88.2454ZM106.049 20.8151C107.997 20.8151 109.548 21.4514 110.701 22.7238C111.874 23.9764 112.461 25.7061 112.461 27.913V37.6353H107.391V28.5989C107.391 27.4855 107.102 26.6207 106.526 26.0043C105.949 25.388 105.174 25.0798 104.2 25.0798C103.225 25.0798 102.45 25.388 101.873 26.0043C101.297 26.6207 101.009 27.4855 101.009 28.5989V37.6353H95.9088V20.9941H101.009V23.201C101.525 22.4653 102.221 21.8888 103.096 21.4712C103.971 21.0338 104.955 20.8151 106.049 20.8151ZM125.033 33.3109V37.6353H122.439C120.59 37.6353 119.148 37.1879 118.114 36.2932C117.081 35.3787 116.564 33.8975 116.564 31.8496V25.2289H114.536V20.9941H116.564V16.9382H121.663V20.9941H125.004V25.2289H121.663V31.9093C121.663 32.4063 121.783 32.7642 122.021 32.9829C122.26 33.2016 122.657 33.3109 123.214 33.3109H125.033ZM126.614 29.2848C126.614 27.575 126.932 26.0739 127.568 24.7816C128.224 23.4893 129.109 22.4952 130.223 21.7993C131.336 21.1034 132.579 20.7555 133.95 20.7555C135.124 20.7555 136.147 20.9941 137.022 21.4712C137.917 21.9484 138.603 22.5747 139.08 23.3501V20.9941H144.18V37.6353H139.08V35.2792C138.583 36.0546 137.887 36.6809 136.992 37.1581C136.118 37.6353 135.094 37.8738 133.921 37.8738C132.569 37.8738 131.336 37.5259 130.223 36.83C129.109 36.1143 128.224 35.1102 127.568 33.8179C126.932 32.5057 126.614 30.9947 126.614 29.2848ZM139.08 29.3147C139.08 28.0422 138.722 27.0382 138.006 26.3026C137.311 25.5669 136.456 25.1991 135.442 25.1991C134.428 25.1991 133.563 25.5669 132.847 26.3026C132.151 27.0183 131.803 28.0124 131.803 29.2848C131.803 30.5573 132.151 31.5713 132.847 32.3268C133.563 33.0624 134.428 33.4302 135.442 33.4302C136.456 33.4302 137.311 33.0624 138.006 32.3268C138.722 31.5911 139.08 30.5871 139.08 29.3147ZM152.723 15.5663V37.6353H147.623V15.5663H152.723ZM171.084 41.214L168.4 37.6054C167.605 37.7645 166.829 37.844 166.074 37.844C164.106 37.844 162.296 37.3867 160.646 36.4722C159.016 35.5576 157.714 34.2851 156.739 32.6548C155.785 31.0046 155.308 29.1556 155.308 27.1078C155.308 25.0599 155.785 23.2209 156.739 21.5905C157.714 19.9602 159.016 18.6878 160.646 17.7732C162.296 16.8586 164.106 16.4014 166.074 16.4014C168.042 16.4014 169.842 16.8586 171.472 17.7732C173.122 18.6878 174.414 19.9602 175.349 21.5905C176.303 23.2209 176.78 25.0599 176.78 27.1078C176.78 28.8971 176.412 30.5374 175.677 32.0286C174.961 33.4998 173.957 34.7226 172.665 35.6968L177.257 41.214H171.084ZM160.527 27.1078C160.527 28.9568 161.024 30.438 162.018 31.5514C163.032 32.6449 164.384 33.1916 166.074 33.1916C167.744 33.1916 169.076 32.6349 170.07 31.5216C171.084 30.4082 171.591 28.9369 171.591 27.1078C171.591 25.2588 171.084 23.7875 170.07 22.694C169.076 21.5806 167.744 21.0239 166.074 21.0239C164.384 21.0239 163.032 21.5707 162.018 22.6642C161.024 23.7577 160.527 25.2389 160.527 27.1078Z" fill="#0C59B3"/>
</svg>
