<svg width="629" height="595" viewBox="0 0 629 595" fill="none" xmlns="http://www.w3.org/2000/svg">
<g clip-path="url(#clip0_1686_2904)">
<path d="M205.527 500.267H33.0291V546.81H205.527V500.267Z" fill="#0C59B3"/>
<path d="M261.011 463.712H32.4678C28.8901 463.712 25.9897 466.621 25.9897 470.21V585.743C25.9897 589.331 28.8901 592.24 32.4678 592.24H261.011C264.589 592.24 267.489 589.331 267.489 585.743V470.21C267.489 466.621 264.589 463.712 261.011 463.712Z" fill="#0C59B3"/>
<path d="M215.244 463.712H22.7253C19.1475 463.712 16.2472 466.621 16.2472 470.21V585.743C16.2472 589.331 19.1475 592.24 22.7253 592.24H215.244C218.822 592.24 221.722 589.331 221.722 585.743V470.21C221.722 466.621 218.822 463.712 215.244 463.712Z" fill="#0C59B3"/>
<path d="M205.259 476.989H33.284C30.9176 476.989 28.9993 478.913 28.9993 481.286V519.235C28.9993 521.608 30.9176 523.532 33.284 523.532H205.259C207.625 523.532 209.544 521.608 209.544 519.235V481.286C209.544 478.913 207.625 476.989 205.259 476.989Z" fill="#E6EEF7"/>
<path d="M205.259 532.843H33.284C30.9176 532.843 28.9993 534.767 28.9993 537.14V575.089C28.9993 577.462 30.9176 579.386 33.284 579.386H205.259C207.625 579.386 209.544 577.462 209.544 575.089V537.14C209.544 534.767 207.625 532.843 205.259 532.843Z" fill="#E6EEF7"/>
<path d="M132.342 496.775H102.949C101.413 496.775 100.169 498.023 100.169 499.563V500.97C100.169 502.51 101.413 503.758 102.949 503.758H132.342C133.878 503.758 135.122 502.51 135.122 500.97V499.563C135.122 498.023 133.878 496.775 132.342 496.775Z" fill="#0C59B3"/>
<path d="M133.337 552.629H103.944C102.408 552.629 101.164 553.878 101.164 555.418V556.825C101.164 558.364 102.408 559.613 103.944 559.613H133.337C134.873 559.613 136.117 558.364 136.117 556.825V555.418C136.117 553.878 134.873 552.629 133.337 552.629Z" fill="#0C59B3"/>
<path d="M534.072 369.117C523.106 384.209 530.374 394.812 532.325 397.191L532.019 395.528C531.93 395.03 532.249 394.556 532.746 394.467C532.797 394.467 532.861 394.454 532.912 394.454C533.346 394.454 533.728 394.761 533.805 395.209L533.907 395.784C543.815 378.364 534.06 369.142 534.06 369.142" fill="#0C59B3"/>
<path d="M546.901 410.25C546.799 410.25 546.684 410.25 546.582 410.25C540.869 410.659 539.785 420.456 539.721 427.158L540.652 432.198C543.547 427.555 553.838 410.237 546.901 410.237" fill="#0C59B3"/>
<path d="M519.841 402.345C519.841 402.345 525.771 412.629 535.819 416.082L534.608 409.482C532.16 407.513 525.248 402.345 519.841 402.345Z" fill="#0C59B3"/>
<path d="M499.973 401.808C498.188 401.808 496.173 401.975 493.89 402.358C493.89 402.358 495.79 413.14 512.7 413.908L510.532 410.787C510.239 410.378 510.341 409.802 510.761 409.508C510.914 409.393 511.106 409.342 511.284 409.342C511.578 409.342 511.858 409.482 512.037 409.738L513.847 412.335C513.592 409.035 511.692 401.808 499.986 401.808" fill="#0C59B3"/>
<path d="M505.724 421.48C502.587 421.48 499.221 421.94 495.854 423.206C495.854 423.206 503.939 428.348 512.177 428.348C515.212 428.348 518.26 427.657 520.938 425.752L520.032 424.447C517.444 423.36 512.037 421.48 505.712 421.48" fill="#0C59B3"/>
<path d="M525.312 439.603L525.452 439.795C525.631 439.859 525.72 439.91 525.72 439.91C525.72 439.91 525.58 439.808 525.299 439.603M502.205 428.629C498.698 428.629 496.428 430.637 497.04 436.354C497.551 441.074 500.139 442.481 503.378 442.481C507.484 442.481 512.636 440.23 515.965 439.578C517.814 439.219 519.395 439.091 520.721 439.091C521.448 439.091 522.098 439.13 522.672 439.194L522.392 438.836C522.111 438.478 522.149 437.966 522.455 437.646C517.52 434.346 508.109 428.629 502.192 428.629" fill="#0C59B3"/>
<path d="M519.841 444.182C519.841 444.182 516.105 448.595 521.677 454.798L512.215 451.063C512.215 451.063 515.76 457.138 521.932 457.138C523.195 457.138 524.572 456.883 526.051 456.269L525.12 455.501C524.738 455.181 524.674 454.606 525.006 454.209C525.184 453.992 525.452 453.877 525.707 453.877C525.911 453.877 526.115 453.941 526.294 454.082L527.186 454.823C526.753 451.984 522.43 444.348 519.854 444.169" fill="#0C59B3"/>
<path d="M551.517 421.48C546.888 435.971 553.226 443.632 554.399 444.886L555.279 443.389C560.839 428.898 551.53 421.48 551.53 421.48" fill="#0C59B3"/>
<path d="M574.688 427.529C571.079 427.529 566.182 430.931 563.44 433.093L561.974 435.587C563.772 437.467 567.024 438.414 570.212 438.414C575.402 438.414 580.413 435.868 578.692 430.625C577.952 428.373 576.473 427.529 574.688 427.529Z" fill="#0C59B3"/>
<path d="M565.035 395.349C557.141 407.692 564.996 422.337 566.31 424.6L568.401 421.032C572.826 409.022 565.035 395.349 565.035 395.349Z" fill="#0C59B3"/>
<path d="M609.654 377.149C601.2 377.149 593.51 401.041 593.51 401.041C579.253 405.3 574.93 410.339 573.63 413.025C573.783 413.025 573.948 413.064 574.089 413.153C574.255 413.255 574.382 413.396 574.459 413.562C576.41 412.053 578.794 411.516 581.37 411.516C584.737 411.516 588.422 412.45 591.827 413.383C595.232 414.317 598.356 415.251 600.613 415.251C601.353 415.251 601.99 415.148 602.526 414.918C607.907 412.603 589.442 406.873 589.442 406.873C619.384 393.904 605.574 392.292 605.574 392.292C605.574 392.292 621.476 383.403 612.116 377.865C611.287 377.379 610.471 377.162 609.654 377.162" fill="#0C59B3"/>
<path d="M601.442 428.258C596.111 428.258 588.269 437.518 584.048 443.069L584.647 442.507C584.826 442.34 585.055 442.251 585.272 442.251C585.514 442.251 585.756 442.34 585.935 442.532C586.279 442.903 586.267 443.479 585.897 443.824L582.823 446.753C589.136 445.244 610.241 439.45 605.152 430.624C604.196 428.949 602.908 428.258 601.442 428.258Z" fill="#0C59B3"/>
<path d="M592.286 452.892C586.382 452.892 578.424 453.711 575.147 454.069L575.058 454.146C578.896 454.35 582.849 458.123 586.318 461.896C589.901 465.785 592.987 469.66 595.002 469.66C595.436 469.66 595.805 469.481 596.124 469.097C599.618 464.864 586.471 454.798 586.471 454.798C586.471 454.798 591.763 455.757 595.563 455.757C597.884 455.757 599.656 455.399 599.325 454.235C599.032 453.212 596.086 452.879 592.273 452.879" fill="#0C59B3"/>
<path d="M545.562 468.931L545.651 469.443L545.817 469.276L545.549 468.931M546.2 462.395L544.784 464.8L544.822 464.992L547.118 467.972L547.207 467.882L546.2 462.408M543.585 458.264L544.287 462.063L545.179 460.554L543.585 458.264ZM532.912 394.441C532.912 394.441 532.797 394.441 532.746 394.454C532.249 394.544 531.917 395.03 532.019 395.516L532.325 397.178L534.595 409.483L535.807 416.082L542.782 453.903L545.307 457.522L540.64 432.185L539.709 427.146L533.919 395.746L533.817 395.17C533.741 394.723 533.358 394.416 532.925 394.416" fill="#0C59B3"/>
<path d="M547.347 460.464L546.327 462.203L549.018 466.079L550.331 464.761L547.347 460.464ZM511.272 409.342C511.093 409.342 510.915 409.393 510.749 409.508C510.341 409.802 510.239 410.365 510.519 410.787L512.687 413.908L520.02 424.447L520.925 425.752L543.573 458.277L545.167 460.566L546.187 458.827L545.294 457.548L542.769 453.928L513.809 412.347L511.999 409.751C511.82 409.495 511.54 409.355 511.246 409.355" fill="#0C59B3"/>
<path d="M544.759 464.889L543.764 466.59L545.575 468.944L545.843 469.289L547.144 467.984L544.848 465.004L544.772 464.902M523.157 437.378C522.966 437.378 522.762 437.441 522.596 437.569C522.558 437.595 522.519 437.633 522.494 437.659C522.188 437.979 522.149 438.49 522.43 438.848L522.711 439.207L542.578 465.043L543.573 463.342L525.478 439.808L525.337 439.616L523.884 437.723C523.705 437.493 523.437 437.365 523.157 437.365" fill="#0C59B3"/>
<path d="M542.948 467.946L542.259 469.123L543.356 470.658L543.955 471.156L545.256 469.852L542.961 467.946M539.161 464.787L541.099 467.498L541.532 466.757L539.161 464.787ZM525.707 453.89C525.439 453.89 525.184 454.005 525.006 454.222C524.687 454.606 524.738 455.194 525.12 455.514L526.051 456.281L530.668 460.118L532.045 458.891L527.174 454.849L526.281 454.107C526.115 453.966 525.911 453.902 525.694 453.902" fill="#0C59B3"/>
<path d="M573.642 413.025C573.336 413.025 573.03 413.192 572.864 413.473L568.414 421.045L566.322 424.613L555.279 443.389L554.399 444.886L546.212 458.827L545.192 460.566L544.3 462.076L543.56 463.342L542.565 465.043L541.545 466.782L541.112 467.524L542.272 469.149L542.961 467.972L543.764 466.603L544.759 464.902L544.81 464.825L546.225 462.421L546.34 462.216L547.36 460.477L561.974 435.6L563.441 433.106L574.433 414.407C574.586 414.138 574.599 413.831 574.484 413.563C574.407 413.396 574.28 413.256 574.114 413.153C573.974 413.064 573.808 413.025 573.655 413.025" fill="#0C59B3"/>
<path d="M585.26 442.251C585.03 442.251 584.801 442.34 584.635 442.507L584.035 443.069L564.563 461.653L565.634 463.163L575.058 454.171L575.147 454.094L582.824 446.778L585.897 443.849C586.267 443.504 586.28 442.916 585.936 442.558C585.757 442.366 585.515 442.276 585.272 442.276" fill="#0C59B3"/>
<path d="M544.835 531.206C536.113 523.622 538.447 508.248 538.447 508.248C549.821 519.657 544.835 531.206 544.835 531.206ZM535.794 501.648C532.019 501.648 530.017 491.838 530.017 491.838C534.672 491.838 541.061 499.704 536.699 501.456C536.393 501.584 536.087 501.635 535.794 501.635M548.393 508.235L535.82 485.136L544.542 476.093L554.501 488.334L548.393 508.235ZM530.005 484.548L525.057 472.589L532.619 465.887L539.301 475.211L530.005 484.535M559.947 455.092L550.344 464.723L549.031 466.04L547.22 467.857L547.131 467.946L545.83 469.251L545.664 469.417L545.256 469.826L543.955 471.131L543.815 471.272L543.356 470.632L542.259 469.097L541.099 467.473L539.161 464.761L533.792 457.279L532.032 458.852L530.655 460.08L521.575 468.202L531.165 594.146H546.57L555.458 501.725C555.407 498.399 555.726 493.821 556.618 489.6L557.715 478.204L554.489 481.094L549.911 471.284L557.689 463.482L559.003 464.8L559.934 455.092" fill="#0C59B3"/>
<path d="M559.946 455.118L559.016 464.825L565.468 471.297L557.728 478.23L556.631 489.626C557.881 483.729 560.227 478.562 564.193 478.562C564.601 478.562 565.022 478.613 565.468 478.728C575.644 481.363 556.172 506.432 556.172 506.432C555.764 506.099 555.509 504.296 555.471 501.751L546.582 594.172H560.826L575.211 463.853L569.549 468.663L565.647 463.137L564.575 461.628L559.959 455.105" fill="#0C59B3"/>
<path d="M538.434 508.248C538.434 508.248 536.113 523.622 544.822 531.206C544.822 531.206 549.796 519.657 538.434 508.248Z" fill="#0C59B3"/>
<path d="M530.004 491.851C530.004 491.851 532.006 501.661 535.781 501.661C536.074 501.661 536.368 501.597 536.686 501.482C541.048 499.73 534.659 491.864 530.004 491.864" fill="#0C59B3"/>
<path d="M544.542 476.106L535.82 485.149L548.393 508.248L554.501 488.359L544.542 476.106Z" fill="#0C59B3"/>
<path d="M532.619 465.9L525.069 472.614L530.004 484.56L539.313 475.236L532.619 465.9Z" fill="#0C59B3"/>
<path d="M557.689 463.495L549.923 471.297L554.501 481.107L557.728 478.229L565.468 471.297L559.016 464.825L557.689 463.495Z" fill="#0C59B3"/>
<path d="M564.193 478.562C560.227 478.562 557.868 483.742 556.631 489.625C555.739 493.846 555.407 498.425 555.471 501.751C555.509 504.283 555.777 506.086 556.172 506.432C556.172 506.432 575.645 481.363 565.468 478.728C565.022 478.613 564.601 478.562 564.193 478.562Z" fill="#0C59B3"/>
<path d="M39.0535 231.588C39.0535 231.588 40.5259 228.635 36.9492 225.257C33.3725 221.879 34.845 216.186 30.8507 214.076C30.8507 214.076 34.6362 212.599 36.3229 218.716C38.0041 224.832 40.7402 228.001 39.3721 231.373L39.059 231.583L39.0535 231.588Z" fill="#0C59B3"/>
<path d="M40.3171 231.798C40.3171 231.798 44.3169 208.163 36.9492 205C36.9492 205 40.1029 223.571 39.0535 231.588L40.3171 231.798Z" fill="#0C59B3"/>
<path d="M40.1029 232.007C40.1029 232.007 39.471 227.367 41.5753 223.78C43.6796 220.193 42.6247 213.861 44.7289 212.599C44.7289 212.599 47.8826 217.239 44.9377 220.826C41.9929 224.414 46.2014 224.204 40.0974 232.007H40.1029Z" fill="#0C59B3"/>
<path d="M35.4768 231.374V241.502C35.4768 242.317 36.1361 242.979 36.9492 242.979H42.4214V231.374H35.4768Z" fill="#0C59B3"/>
<path d="M45.3663 241.502V231.374H42.4214V242.979H43.8938C44.707 242.979 45.3663 242.317 45.3663 241.502Z" fill="#0C59B3"/>
<path d="M45.4707 230.321H35.3724C34.6197 230.321 34.0044 230.932 34.0044 231.693C34.0044 232.453 34.6142 233.065 35.3724 233.065H45.4707C46.2234 233.065 46.8387 232.453 46.8387 231.693C46.8387 230.932 46.2289 230.321 45.4707 230.321Z" fill="#0C59B3"/>
<path d="M45.3663 232.723H35.4768V233.825H45.3663V232.723Z" fill="#0C59B3"/>
<path d="M179.104 462.05H118.927V463.879H179.104V462.05Z" fill="#0C59B3"/>
<path d="M179.104 460.323H118.927V462.152H179.104V460.323Z" fill="#0C59B3"/>
<path d="M179.104 458.596H118.927V460.425H179.104V458.596Z" fill="#0C59B3"/>
<path d="M179.104 456.87H118.927V458.699H179.104V456.87Z" fill="#0C59B3"/>
<path d="M179.104 455.143H118.927V456.972H179.104V455.143Z" fill="#0C59B3"/>
<path d="M179.104 453.417H118.927V455.245H179.104V453.417Z" fill="#0C59B3"/>
<path d="M179.104 451.69H118.927V453.519H179.104V451.69Z" fill="#0C59B3"/>
<path d="M179.104 449.963H118.927V451.792H179.104V449.963Z" fill="#0C59B3"/>
<path d="M179.104 448.236H118.927V450.065H179.104V448.236Z" fill="#0C59B3"/>
<path d="M179.104 446.51H118.927V448.339H179.104V446.51Z" fill="#0C59B3"/>
<path d="M179.104 444.783H118.927V446.612H179.104V444.783Z" fill="#0C59B3"/>
<path d="M179.104 443.056H118.927V444.885H179.104V443.056Z" fill="#0C59B3"/>
<path d="M179.104 441.33H118.927V443.159H179.104V441.33Z" fill="#0C59B3"/>
<path d="M179.104 439.603H118.927V441.432H179.104V439.603Z" fill="#0C59B3"/>
<path d="M179.104 437.864H118.927V439.693H179.104V437.864Z" fill="#0C59B3"/>
<path d="M179.104 436.137H118.927V437.966H179.104V436.137Z" fill="#0C59B3"/>
<path d="M179.104 434.41H118.927V436.239H179.104V434.41Z" fill="#0C59B3"/>
<path d="M179.104 432.684H118.927V434.513H179.104V432.684Z" fill="#0C59B3"/>
<path d="M179.104 430.957H118.927V432.786H179.104V430.957Z" fill="#0C59B3"/>
<path d="M179.104 429.23H118.927V431.059H179.104V429.23Z" fill="#0C59B3"/>
<path d="M179.104 427.503H118.927V429.332H179.104V427.503Z" fill="#0C59B3"/>
<path d="M179.104 425.777H118.927V427.606H179.104V425.777Z" fill="#0C59B3"/>
<path d="M179.104 462.05H118.927V463.879H179.104V462.05Z" fill="#0C59B3"/>
<path d="M179.104 460.323H118.927V462.152H179.104V460.323Z" fill="#0C59B3"/>
<path d="M179.104 458.596H118.927V460.425H179.104V458.596Z" fill="#0C59B3"/>
<path d="M179.104 456.87H118.927V458.699H179.104V456.87Z" fill="#0C59B3"/>
<path d="M179.104 455.143H118.927V456.972H179.104V455.143Z" fill="#0C59B3"/>
<path d="M179.104 453.417H118.927V455.245H179.104V453.417Z" fill="#0C59B3"/>
<path d="M179.104 451.69H118.927V453.519H179.104V451.69Z" fill="#0C59B3"/>
<path d="M179.104 449.963H118.927V451.792H179.104V449.963Z" fill="#0C59B3"/>
<path d="M179.104 448.236H118.927V450.065H179.104V448.236Z" fill="#0C59B3"/>
<path d="M179.104 446.51H118.927V448.339H179.104V446.51Z" fill="#0C59B3"/>
<path d="M179.104 444.783H118.927V446.612H179.104V444.783Z" fill="#0C59B3"/>
<path d="M179.104 443.056H118.927V444.885H179.104V443.056Z" fill="#0C59B3"/>
<path d="M179.104 441.33H118.927V443.159H179.104V441.33Z" fill="#0C59B3"/>
<path d="M179.104 439.603H118.927V441.432H179.104V439.603Z" fill="#0C59B3"/>
<path d="M179.104 437.864H118.927V439.693H179.104V437.864Z" fill="#0C59B3"/>
<path d="M179.104 436.137H118.927V437.966H179.104V436.137Z" fill="#0C59B3"/>
<path d="M179.104 434.41H118.927V436.239H179.104V434.41Z" fill="#0C59B3"/>
<path d="M179.104 432.684H118.927V434.513H179.104V432.684Z" fill="#0C59B3"/>
<path d="M179.104 430.957H118.927V432.786H179.104V430.957Z" fill="#0C59B3"/>
<path d="M179.104 429.23H118.927V431.059H179.104V429.23Z" fill="#0C59B3"/>
<path d="M179.104 427.503H118.927V429.332H179.104V427.503Z" fill="#0C59B3"/>
<path d="M179.104 425.777H118.927V427.606H179.104V425.777Z" fill="#0C59B3"/>
<path d="M203.117 462.05H179.104V463.879H203.117V462.05Z" fill="#0C59B3"/>
<path d="M203.117 460.323H179.104V462.152H203.117V460.323Z" fill="#0C59B3"/>
<path d="M203.117 458.596H179.104V460.425H203.117V458.596Z" fill="#0C59B3"/>
<path d="M203.117 456.87H179.104V458.699H203.117V456.87Z" fill="#0C59B3"/>
<path d="M203.117 455.143H179.104V456.972H203.117V455.143Z" fill="#0C59B3"/>
<path d="M203.117 453.417H179.104V455.245H203.117V453.417Z" fill="#0C59B3"/>
<path d="M203.117 451.69H179.104V453.519H203.117V451.69Z" fill="#0C59B3"/>
<path d="M203.117 449.963H179.104V451.792H203.117V449.963Z" fill="#0C59B3"/>
<path d="M203.117 448.236H179.104V450.065H203.117V448.236Z" fill="#0C59B3"/>
<path d="M203.117 446.51H179.104V448.339H203.117V446.51Z" fill="#0C59B3"/>
<path d="M203.117 444.783H179.104V446.612H203.117V444.783Z" fill="#0C59B3"/>
<path d="M203.117 443.056H179.104V444.885H203.117V443.056Z" fill="#0C59B3"/>
<path d="M203.117 441.33H179.104V443.159H203.117V441.33Z" fill="#0C59B3"/>
<path d="M203.117 439.603H179.104V441.432H203.117V439.603Z" fill="#0C59B3"/>
<path d="M203.117 437.864H179.104V439.693H203.117V437.864Z" fill="#0C59B3"/>
<path d="M203.117 436.137H179.104V437.966H203.117V436.137Z" fill="#0C59B3"/>
<path d="M203.117 434.41H179.104V436.239H203.117V434.41Z" fill="#0C59B3"/>
<path d="M203.117 432.684H179.104V434.513H203.117V432.684Z" fill="#0C59B3"/>
<path d="M203.117 430.957H179.104V432.786H203.117V430.957Z" fill="#0C59B3"/>
<path d="M203.117 429.23H179.104V431.059H203.117V429.23Z" fill="#0C59B3"/>
<path d="M203.117 427.503H179.104V429.332H203.117V427.503Z" fill="#0C59B3"/>
<path d="M203.117 425.777H179.104V427.606H203.117V425.777Z" fill="#0C59B3"/>
</g>
<path d="M168.807 164.875L174.834 208.102H178.165C177.989 201.927 178.044 195.156 178.585 188.791C177.461 177.659 174.726 167.827 168.807 164.875Z" fill="#0C59B3"/>
<path d="M187.429 164.793C181.985 167.786 179.52 177.645 178.572 188.791C178.03 195.155 177.989 201.927 178.152 208.089H181.944L182.188 208.075L187.415 164.807" fill="#0C59B3"/>
<path d="M186.224 208.048L182.201 208.061L181.957 208.075L178.165 208.088L174.834 208.102H173.75H174.875L170.365 241.227L191.031 241.281L186.224 208.048Z" fill="#0C59B3"/>
<path d="M174.874 208.102H173.75L170.608 208.116L166.099 241.213L170.365 241.227L174.874 208.102Z" fill="#0C59B3"/>
<path d="M104.275 183.875L104.262 192.393L116.356 192.42L125.876 192.447L125.768 241.105L130.982 241.119L131.117 183.956L139.446 183.969L140.381 183.983L136.711 183.969L104.275 183.875Z" fill="#0C59B3"/>
<path d="M131.117 183.956L130.982 241.119L140.245 241.146L140.381 183.983L139.446 183.969L131.117 183.956Z" fill="#0C59B3"/>
<path d="M94.4023 192.366L94.3752 198.853L102.474 198.88L110.22 202.929L97.937 241.037L116.234 241.078L116.355 192.42L104.262 192.393L94.4023 192.366Z" fill="#0C59B3"/>
<path d="M116.355 192.42L116.234 241.078L125.768 241.105L125.876 192.447L116.355 192.42Z" fill="#0C59B3"/>
<path d="M80.1689 198.825L64.8518 239.277L88.8634 239.345L102.474 198.88L94.3754 198.853L80.1689 198.825Z" fill="#0C59B3"/>
<path d="M102.474 198.88L88.8634 239.345L92.222 241.024L97.9372 241.037L110.221 202.929L102.474 198.88Z" fill="#0C59B3"/>
<path d="M64.8518 239.277L67.7771 240.956L92.2221 241.024L88.8634 239.345L64.8518 239.277Z" fill="#0C59B3"/>
<path d="M72.1514 250.49L72.0702 282.559L81.171 282.586L81.2388 250.517L72.1514 250.49Z" fill="#0C59B3"/>
<path d="M67.6145 240.956L67.601 250.476L72.1514 250.49L81.2387 250.517L192.927 250.801L202.015 250.829L242.4 250.937L242.413 241.416L202.042 241.308L192.941 241.281H191.031L170.365 241.227L166.099 241.213L140.245 241.146L130.982 241.119L125.768 241.105L116.234 241.078L97.9371 241.037L92.222 241.024L67.777 240.956H67.6145Z" fill="#0C59B3"/>
<path d="M27.866 240.848L27.8524 250.368L67.601 250.477L67.6145 240.956L27.866 240.848Z" fill="#0C59B3"/>
<path d="M192.927 250.802L192.846 282.87L201.947 282.897L202.028 250.829L192.927 250.802Z" fill="#0C59B3"/>
<path d="M371.066 396.897H169.483C163.048 396.897 157.83 402.166 157.83 408.666V454.905C157.83 461.405 163.048 466.675 169.483 466.675H371.066C377.502 466.675 382.719 461.405 382.719 454.905V408.666C382.719 402.166 377.502 396.897 371.066 396.897Z" fill="#3FD1B8"/>
<path d="M363.84 417.04H221.406C220.224 417.04 219.275 416.081 219.275 414.888C219.275 413.694 220.224 412.735 221.406 412.735H363.84C365.022 412.735 365.971 413.694 365.971 414.888C365.971 416.081 365.022 417.04 363.84 417.04Z" fill="white"/>
<path d="M363.84 432.862H221.406C220.224 432.862 219.275 431.903 219.275 430.709C219.275 429.516 220.224 428.557 221.406 428.557H363.84C365.022 428.557 365.971 429.516 365.971 430.709C365.971 431.903 365.022 432.862 363.84 432.862Z" fill="white"/>
<path d="M335.007 448.7H221.406C220.224 448.7 219.275 447.742 219.275 446.548C219.275 445.354 220.224 444.396 221.406 444.396H335.007C336.189 444.396 337.138 445.354 337.138 446.548C337.138 447.742 336.189 448.7 335.007 448.7Z" fill="white"/>
<path d="M189.976 450.399C200.154 450.399 208.405 442.065 208.405 431.786C208.405 421.506 200.154 413.173 189.976 413.173C179.798 413.173 171.547 421.506 171.547 431.786C171.547 442.065 179.798 450.399 189.976 450.399Z" fill="white"/>
<path d="M187.978 440.512C187.445 440.512 186.929 440.31 186.546 439.957L180.986 434.862C180.121 434.055 180.054 432.693 180.836 431.819C181.636 430.945 182.984 430.877 183.85 431.668L187.812 435.3L196.552 425.346C197.334 424.455 198.682 424.37 199.565 425.161C200.447 425.951 200.53 427.313 199.748 428.204L189.56 439.789C189.177 440.226 188.644 440.478 188.078 440.512C188.045 440.512 187.995 440.512 187.961 440.512H187.978Z" fill="#1DAE66"/>
<path d="M401.178 0H306.376V142.917H401.178V0Z" fill="#0C59B3"/>
<path d="M508.164 0H413.362V142.917H508.164V0Z" fill="#0C59B3"/>
<path d="M613.199 0H518.397V142.917H613.199V0Z" fill="#0C59B3"/>
<path d="M401.178 157.295H306.376V300.211H401.178V157.295Z" fill="#0C59B3"/>
<path d="M508.164 157.295H413.362V300.211H508.164V157.295Z" fill="#0C59B3"/>
<path d="M613.199 157.295H518.397V300.211H613.199V157.295Z" fill="#0C59B3"/>
<g clip-path="url(#clip1_1686_2904)">
<path d="M629 590.541H0V594.196H629V590.541Z" fill="#C7C7C7"/>
<g clip-path="url(#clip2_1686_2904)">
<path d="M251.289 537.324L249.766 565.079L233.027 565.212C233.027 565.212 230.491 532.322 230.885 531.688C231.278 531.054 251.289 537.316 251.289 537.316V537.324Z" fill="#FFCDC2"/>
<path d="M226.658 588.507C241.815 588.949 262.529 588.482 283.669 586.898C283.669 586.898 292.474 571.707 272.011 570.49C251.548 569.272 252.276 557.784 252.276 557.784C245.933 557.333 237.932 557.483 228.156 556.8L226.658 588.498V588.507Z" fill="#070707"/>
<path d="M238.526 542.735L237.002 570.489L220.264 570.623C220.264 570.623 217.728 537.732 218.121 537.099C218.515 536.465 238.526 542.726 238.526 542.726V542.735Z" fill="#FFCDC2"/>
<path d="M213.903 593.926C229.06 594.367 250.184 594.117 271.525 594.084C271.525 594.084 279.719 577.126 259.256 575.909C238.793 574.691 239.522 563.203 239.522 563.203C233.178 562.752 225.177 562.902 215.402 562.219L213.903 593.917V593.926Z" fill="#1B2D37"/>
<path d="M360.9 309.548C360.9 309.548 344.145 315.409 333.273 315.226C328.352 315.142 328.913 314.342 325.85 314.9C321.565 312.941 316.836 313.075 312.777 313.717C300.474 315.642 289.569 311.632 289.569 311.632C289.569 311.632 282.045 323.296 282.355 323.696C282.615 324.03 298.391 327.506 305.764 328.424C302.927 331.7 307.521 333.918 309.103 331.992C307.496 334.743 311.798 335.86 312.752 333.993C312.401 336.611 316.1 335.052 316.2 334.927C315.179 337.353 321.054 335.752 321.414 334.735C322.912 335.635 324.896 337.353 325.39 337.094C327.197 336.144 325.883 333.709 325.883 333.709C325.883 333.709 328.821 336.111 330.026 335.577C331.231 335.043 329.959 332.526 329.959 332.526C329.959 332.526 332.453 335.327 334.06 334.185C335.659 333.042 334.018 330.391 334.018 330.391C334.018 330.391 336.947 333.718 338.295 332.476C338.713 332.092 338.295 330.45 337.994 329.391C341.341 328.123 341.542 326.039 344.873 325.464C349.526 324.663 370.859 323.78 370.859 323.78L360.892 309.54L360.9 309.548ZM330.721 318.344C330.721 318.344 330.721 318.344 330.712 318.335L330.721 318.344Z" fill="#FFCDC2"/>
<path d="M199.132 357.463C199.132 357.463 216.824 426.629 215.326 457.327C213.82 488.025 218.281 549.58 218.281 549.58C218.281 549.58 236.668 559.151 251.749 551.556C251.749 551.556 255.515 458.494 259.064 423.503C262.612 388.519 267.759 343.039 267.759 343.039L199.132 357.463Z" fill="#070707"/>
<path d="M198.194 357.488C198.194 357.488 201.668 375.922 204.764 397.89C207.585 417.908 211.861 444.254 211.142 458.886C209.635 489.584 213.092 554.082 213.092 554.082C213.092 554.082 228.374 562.986 243.455 555.391C243.455 555.391 250.644 456.927 254.193 421.935C257.741 386.952 260.788 341.972 260.788 341.972L198.194 357.488Z" fill="#121E21"/>
<path d="M244.987 234.479C244.987 234.479 250.184 236.046 250 236.955C249.816 237.872 250.125 242.874 250.125 242.874C250.125 242.874 258.126 249.544 262.42 265.702C266.713 281.86 265.784 293.665 265.784 293.665C265.784 293.665 256.896 282.51 245.581 263.918C234.266 245.326 229.278 238.047 232.952 233.203C236.626 228.359 244.978 234.479 244.978 234.479H244.987Z" fill="#A00243"/>
<path d="M250.073 242.791L246.807 244.375L246.899 244.562L250.165 242.978L250.073 242.791Z" fill="#979A9B"/>
<path d="M214.59 221.889C214.59 221.889 201.509 228.126 195.793 240.44C190.076 252.754 192.888 263.476 198.287 281.576C203.685 299.685 204.17 330.942 195.165 359.672C195.165 359.672 230.366 367.151 271.023 358.13C271.023 358.13 267.533 314.025 268.345 309.306C269.165 304.587 268.312 284.911 262.336 276.182C256.352 267.453 238.015 234.42 237.061 232.494C236.107 230.569 214.598 221.898 214.598 221.898L214.59 221.889Z" fill="#1B2D37"/>
<path d="M232.96 233.211L259.348 271.838C259.348 271.838 253.808 261.625 251.222 254.697C248.644 247.768 248.1 243.925 248.1 243.925C248.1 243.925 237.521 234.287 232.952 233.203L232.96 233.211Z" fill="#EAEEEF"/>
<path d="M215.1 217.037C215.1 217.037 213.937 221.047 213.694 223.99C213.694 223.99 238.835 237.447 241.011 239.523C241.011 239.523 241.413 233.136 241.974 230.902L215.1 217.037Z" fill="#EAEEEF"/>
<path d="M225.093 206.349L218.49 218.78L241.447 230.91C241.447 230.91 239.656 217.996 243.664 212.552C247.665 207.107 235.848 188.065 230.634 193.943C225.42 199.821 225.093 206.349 225.093 206.349Z" fill="#E0A4AB"/>
<path d="M231.529 198.019C231.529 198.019 228.742 210.726 238.593 215.686C248.443 220.647 253.03 221.064 257.499 216.111C261.968 211.159 267.215 203.539 268.998 202.213C270.396 201.171 265.24 197.327 265.299 195.302C265.357 193.276 271.157 178.685 266.387 174.125C261.616 169.564 227.512 170.865 221.955 177.46C216.398 184.046 231.521 198.011 231.521 198.011L231.529 198.019Z" fill="#FFCDC2"/>
<path d="M400.043 540.859C400.043 540.859 401.273 553.698 393.598 557.092C385.916 560.477 377.73 567.53 377.73 567.53C377.73 567.53 391.908 573.583 395.615 571.082C399.323 568.58 412.622 559.735 409.015 552.223C405.407 544.702 400.043 540.867 400.043 540.867V540.859Z" fill="#E0A4AB"/>
<path d="M383.706 562.919C383.706 562.919 364.75 571.082 363.729 573.224C362.708 575.367 361.469 582.529 375.856 581.328C388.117 580.303 412.982 569.264 420.028 566.037C421.167 565.521 418.447 565.004 418.296 563.761C417.71 559.101 416.187 547.987 414.605 545.628C414.605 545.628 390.083 570.056 384.886 569.097C379.689 568.138 383.723 562.911 383.723 562.911L383.706 562.919Z" fill="#121E21"/>
<path d="M389.406 567.855C389.406 567.855 366.123 581.853 365.102 584.005C364.081 586.156 362.842 593.309 377.229 592.108C389.49 591.083 414.354 580.044 421.401 576.818C422.539 576.301 423.209 575.109 423.058 573.866C422.473 569.206 420.949 558.092 419.368 555.733C419.368 555.733 393.85 573.249 388.644 572.291C383.439 571.332 389.414 567.855 389.414 567.855H389.406Z" fill="#22393D"/>
<path d="M384.309 465.74C384.309 465.74 389.305 501.465 392.209 514.154C395.113 526.844 403.323 552.64 400.98 557.133C398.637 561.627 380.409 574.55 380.409 574.55C380.409 574.55 400.436 580.011 407.039 575.425C413.651 570.84 420.756 560.577 420.756 560.577C420.756 560.577 418.555 552.123 417.727 551.531C416.898 550.939 419.995 521.883 416.178 504.15C412.362 486.416 409.307 476.353 411.383 468.424C413.458 460.487 422.522 423.561 422.522 423.561L380.191 443.504L384.3 465.74H384.309Z" fill="#FFCDC2"/>
<path d="M375.931 445.263L386.301 481.03L386.552 443.379L375.931 445.263Z" fill="#F2C3BB"/>
<path d="M374.902 445.28L386.301 481.03L385.531 443.395L374.902 445.28Z" fill="#E0A4AB"/>
<path d="M375.973 348.558C375.973 348.558 363.16 415.582 371.32 448.69C371.32 448.69 400.62 454.501 424.523 446.122C424.523 446.122 422.849 419.651 432.741 397.349C446.233 366.942 437.077 342.739 437.077 342.739L375.973 348.558Z" fill="#22393D"/>
<path d="M381.915 294.699C381.915 294.699 367.018 309.256 349.518 310.298L355.586 331.859C355.586 331.859 378.358 327.34 384.225 322.513C390.084 317.685 381.924 294.691 381.924 294.691L381.915 294.699Z" fill="#D1D3D4"/>
<path d="M397.624 237.755C397.624 237.755 385.321 257.54 381.43 271.18C380.501 274.44 380.743 299.418 380.743 299.418C380.743 299.418 413.459 274.331 414.572 261.55C415.685 248.777 427.033 231.219 415.894 229.935C404.755 228.659 397.624 237.755 397.624 237.755Z" fill="#D1D3D4"/>
<path d="M402.144 249.811C402.144 249.811 389.197 282.46 380.543 291.339C380.543 291.339 380.777 337.686 373.605 352.102C373.605 352.102 386.46 362.165 440.625 350.743C440.625 350.743 438.006 304.495 440.491 292.148C442.985 279.8 451.664 242.583 449.856 235.938C448.04 229.293 435.478 210.834 427.109 218.921C418.74 227.008 412.773 233.32 409.174 236.004C405.575 238.689 402.144 249.811 402.144 249.811Z" fill="#BBBEBF"/>
<path d="M398.537 217.704C398.537 217.704 400.411 230.01 399.851 232.253C399.851 232.253 419.05 227.084 419.535 221.164C420.02 215.245 422.238 204.473 414.162 206.665C406.077 208.85 398.537 217.712 398.537 217.712V217.704Z" fill="#E0A4AB"/>
<path d="M401.508 325.131C401.508 325.131 404.571 365.542 396.586 372.862C384.2 384.217 389.623 383.892 386.644 389.02C382.443 396.248 382.292 396.606 383.397 397.674C385.263 399.458 390.828 390.487 390.828 390.487C390.828 390.487 389.263 402.651 387.498 405.728C385.732 408.796 385.037 413.064 389.514 407.512C393.992 401.959 395.063 393.78 395.063 393.78C395.063 393.78 393.766 403.51 392.41 406.436C392.201 406.895 392.578 407.428 393.08 407.378C393.774 407.312 394.729 406.753 395.649 404.71C397.398 400.825 399.599 393.472 399.599 393.472L395.95 406.078C395.95 406.078 396.36 408.12 399.599 402.584C402.838 397.057 403.658 393.914 403.658 393.914C403.658 393.914 402.663 398.891 400.219 402.551C399.859 403.093 401.106 403.101 401.842 402.109C403.541 399.816 404.37 400.508 405.55 394.606C407.483 384.951 417.024 343.915 419.493 335.461L401.499 325.139L401.508 325.131Z" fill="#FFCDC2"/>
<path d="M410.563 232.028C410.563 232.028 403.474 250.186 404.186 275.065C404.897 299.943 399.298 332.434 391.983 343.931C391.983 343.931 405.307 349.734 419.769 351.46C419.769 351.46 433.403 272.847 431.461 257.707" fill="#BBBEBF"/>
<path d="M410.563 232.028C409.006 236.53 407.91 241.174 406.989 245.843C406.086 250.511 405.45 255.23 405.081 259.966C404.721 264.702 404.521 269.445 404.688 274.189C404.797 278.95 404.864 283.744 404.621 288.513C404.395 293.282 404.085 298.059 403.508 302.803C403.265 305.179 402.897 307.539 402.587 309.915C402.202 312.274 401.859 314.642 401.39 316.985C400.52 321.687 399.491 326.364 398.135 330.975C396.762 335.569 395.214 340.154 392.67 344.381L392.302 343.189C394.478 344.098 396.737 344.923 398.989 345.707C401.248 346.491 403.533 347.191 405.835 347.833C408.136 348.483 410.454 349.042 412.798 349.525C415.133 350.034 417.493 350.384 419.853 350.709L418.999 351.343C420.355 343.581 421.644 335.811 422.899 328.032C424.155 320.253 425.427 312.474 426.59 304.679C427.77 296.892 428.841 289.08 429.837 281.268C430.323 277.358 430.766 273.447 431.11 269.521C431.411 265.602 431.771 261.658 431.461 257.723C431.905 261.65 431.695 265.61 431.478 269.546C431.235 273.481 430.892 277.416 430.507 281.343C429.745 289.197 428.724 297.017 427.687 304.837C426.624 312.65 425.527 320.462 424.322 328.257C423.109 336.052 421.853 343.831 420.539 351.61C420.472 352.018 420.087 352.302 419.686 352.243C417.275 351.927 414.873 351.576 412.496 351.076C410.12 350.593 407.759 350.034 405.424 349.392C403.089 348.75 400.771 348.05 398.478 347.274C396.176 346.499 393.925 345.657 391.665 344.698C391.247 344.523 391.055 344.048 391.23 343.631C391.247 343.598 391.264 343.564 391.28 343.531L391.297 343.506C393.699 339.554 395.273 335.044 396.637 330.533C397.993 326.006 399.039 321.37 399.926 316.71C400.395 314.384 400.754 312.041 401.148 309.698C401.474 307.347 401.851 305.004 402.102 302.645C402.679 297.934 403.106 293.199 403.391 288.463C403.7 283.719 403.709 278.983 403.675 274.223C403.583 269.437 403.834 264.66 404.311 259.908C404.805 255.155 405.567 250.436 406.588 245.776C407.609 241.115 408.864 236.496 410.58 232.053L410.563 232.028Z" fill="#979A9B"/>
<path d="M423.761 218.988L394.117 229.935L396.101 241.032C396.101 241.032 407.039 236.155 409.174 236.005L423.761 218.988Z" fill="#BBBEBF"/>
<path d="M381.664 172.499C381.664 172.499 382.175 182.662 383.823 188.849C385.472 195.043 380.45 202.73 381.53 203.472C382.61 204.206 389.623 211.66 390.786 216.495C391.95 221.331 401.022 225.241 414.321 212.218C427.619 199.195 435.369 175.809 416.513 170.273C397.658 164.737 381.664 172.499 381.664 172.499Z" fill="#FFCDC2"/>
<path d="M403.282 270.213C403.282 270.213 390.259 260.266 398.963 238.664C403.834 226.567 419.995 204.106 407.759 191.8C396.226 180.211 375.462 182.337 380.049 168.072C384.635 153.807 416.798 138.85 435.143 161.544C453.489 184.246 440.977 206.899 448.057 228.267C456.535 253.855 452.518 286.537 441.261 290.097C441.261 290.097 442.843 268.203 443.471 258.882C444.09 249.561 444.877 228.292 428.398 227.409C411.919 226.525 404.981 242.291 403.282 270.204V270.213Z" fill="#414042"/>
<path d="M381.103 292.94C385.02 288.913 389.087 285.12 393.013 281.201C394.996 279.267 396.929 277.274 398.804 275.248C400.662 273.197 402.512 271.138 404.06 268.804C403.123 271.472 401.507 273.848 399.808 276.091C398.98 277.233 398.017 278.267 397.114 279.342C396.159 280.376 395.197 281.401 394.201 282.394C392.192 284.361 390.117 286.254 387.933 288.013C385.757 289.78 383.505 291.473 381.112 292.957L381.103 292.94Z" fill="#979A9B"/>
<path d="M385.83 310.442C385.945 309.033 385.32 307.833 384.436 307.762C383.551 307.69 382.741 308.775 382.627 310.184C382.512 311.593 383.137 312.793 384.021 312.864C384.906 312.935 385.716 311.851 385.83 310.442Z" fill="#979A9B"/>
<path d="M384.415 330.131C384.53 328.722 383.831 327.516 382.854 327.437C381.877 327.358 380.993 328.436 380.878 329.845C380.764 331.254 381.463 332.46 382.439 332.539C383.416 332.618 384.301 331.54 384.415 330.131Z" fill="#979A9B"/>
<path d="M389.406 567.855C389.406 567.855 366.399 582.379 365.378 584.53C364.357 586.672 363.118 593.834 377.505 592.634C389.765 591.608 414.63 580.569 421.677 577.343C422.815 576.826 423.485 575.634 423.334 574.391C422.748 569.731 421.225 558.617 419.643 556.258C419.643 556.258 394.126 573.775 388.92 572.816C383.714 571.857 389.414 567.855 389.414 567.855H389.406Z" fill="#121E21"/>
<path d="M413.082 590.074C412.111 590.091 411.308 589.324 411.291 588.357L411.09 578.51L422.975 571.69C425.41 582.179 417.551 588.773 413.082 590.074Z" fill="#121E21"/>
<path d="M235.898 192.825C235.898 192.825 247.472 176.859 268.094 178.252C268.094 178.252 278.748 162.419 258.227 152.506C237.706 142.601 212.749 151.839 207.702 173.858C202.513 196.494 223.193 209.717 223.193 209.717L232.14 197.161C232.14 197.161 229.144 195.894 227.939 193.059C226.7 190.141 226.315 186.522 230.491 185.163C236.492 183.212 235.906 192.825 235.906 192.825H235.898Z" fill="#414042"/>
<path d="M230.784 255.189C230.784 255.189 243.271 297.767 247.297 299.71C251.322 301.653 296.591 309.548 296.591 309.548L289.36 333.468C289.36 333.468 234.718 324.255 228.901 317.894C223.085 311.532 205.35 259.266 205.35 259.266L230.784 255.189Z" fill="#1B2D37"/>
<path d="M229.228 254.605C231.738 259.983 233.981 265.444 236.157 270.921C238.333 276.399 240.442 281.893 242.551 287.362C243.079 288.73 243.606 290.097 244.158 291.439C244.694 292.798 245.255 294.132 245.84 295.433C246.125 296.083 246.435 296.709 246.744 297.259C246.87 297.501 247.121 297.767 246.97 297.684C247.02 297.726 247.188 297.801 247.297 297.859C247.405 297.926 247.531 297.992 247.698 298.059C248.92 298.584 250.343 299.051 251.716 299.527C257.289 301.327 262.989 302.978 268.613 304.912C262.679 304.337 256.829 303.387 251.004 302.028C249.54 301.678 248.1 301.336 246.585 300.76C246.41 300.702 246.2 300.61 245.983 300.502C245.757 300.385 245.581 300.327 245.33 300.169C244.61 299.61 244.459 299.251 244.175 298.876C243.723 298.168 243.346 297.484 243.003 296.8C241.631 294.074 240.543 291.323 239.446 288.563C237.304 283.027 235.437 277.424 233.722 271.772C232.006 266.119 230.449 260.416 229.253 254.597L229.228 254.605Z" fill="#121E21"/>
<path d="M205.325 258.257C209.074 266.31 212.556 274.456 215.979 282.618L226.156 307.105C227.001 309.139 227.855 311.174 228.742 313.175C229.186 314.175 229.638 315.167 230.106 316.143C230.341 316.626 230.583 317.11 230.826 317.56C231.06 317.994 231.353 318.51 231.512 318.711L231.529 318.736C231.529 318.736 231.546 318.761 231.512 318.719C231.487 318.694 231.462 318.677 231.437 318.661L231.395 318.644L231.429 318.661L231.688 318.769C231.855 318.844 231.998 318.927 232.282 319.011C232.784 319.177 233.261 319.361 233.78 319.511C234.818 319.828 235.864 320.136 236.936 320.42L243.338 322.129C251.916 324.347 260.537 326.523 269.098 328.974C260.252 327.882 251.481 326.414 242.752 324.663C240.568 324.23 238.383 323.78 236.207 323.254C235.119 323.004 234.023 322.721 232.927 322.437C232.383 322.296 231.805 322.104 231.253 321.945C231.002 321.879 230.634 321.729 230.299 321.579L229.797 321.353L229.738 321.328L229.621 321.245C229.537 321.187 229.462 321.12 229.387 321.053C229.294 320.978 229.261 320.928 229.228 320.895L229.11 320.762C228.566 320.103 228.332 319.636 228.031 319.102C227.746 318.585 227.487 318.077 227.227 317.568C226.717 316.551 226.248 315.534 225.779 314.517C224.85 312.483 223.963 310.44 223.093 308.397C221.402 304.287 219.745 300.168 218.163 296.033C216.607 291.881 215.025 287.737 213.577 283.552C210.614 275.198 207.802 266.794 205.35 258.257H205.325Z" fill="#121E21"/>
<path d="M207.342 227.242C211.744 228.543 215.954 230.46 220.013 232.661C222.03 233.787 224.013 234.971 225.93 236.271C227.838 237.589 229.688 238.989 231.479 240.482C233.27 241.966 234.935 243.608 236.542 245.309C238.157 247.001 239.63 248.836 240.978 250.77C242.35 252.679 243.522 254.738 244.593 256.848C245.673 258.957 246.451 261.2 247.163 263.459L246.016 262.342L251.816 263.951L253.147 264.318L252.988 265.644L252.193 272.397L251.866 271.33C253.49 273.389 255.013 275.49 256.519 277.616C258.034 279.734 259.482 281.901 260.871 284.103C262.286 286.287 263.591 288.555 264.813 290.856C266.01 293.165 267.157 295.541 267.818 298.068C266.73 295.708 265.307 293.557 263.843 291.439C262.386 289.313 260.846 287.254 259.281 285.203C257.708 283.169 256.109 281.143 254.502 279.133C252.887 277.133 251.23 275.148 249.59 273.181L249.213 272.73L249.263 272.105L249.799 265.327L250.971 267.019L245.154 265.485L244.292 265.26L244.008 264.376C242.685 260.216 240.794 256.231 238.3 252.587C235.822 248.952 232.893 245.576 229.621 242.533C226.374 239.465 222.817 236.688 219.084 234.145C215.343 231.602 211.435 229.285 207.342 227.234V227.242Z" fill="#121E21"/>
<path d="M255.172 187.056C255.306 186.03 255.792 185.155 256.453 184.413C257.122 183.679 258.034 183.062 259.164 182.821C260.277 182.545 261.583 182.862 262.445 183.529C262.914 183.838 263.215 184.28 263.5 184.697C263.742 185.147 263.91 185.622 263.993 186.122C263.474 185.98 263.089 185.755 262.671 185.614C262.253 185.497 261.909 185.322 261.541 185.28C260.847 185.13 260.286 185.122 259.666 185.263C259.047 185.397 258.369 185.647 257.633 185.972C256.888 186.297 256.11 186.672 255.164 187.056H255.172Z" fill="#414042"/>
<path d="M260.905 191.575C260.93 192.876 260.235 193.943 259.357 193.96C258.478 193.976 257.733 192.942 257.708 191.642C257.683 190.341 258.377 189.274 259.256 189.257C260.135 189.241 260.88 190.274 260.905 191.575Z" fill="#414042"/>
<path d="M393.256 187.798C392.486 187.531 391.908 187.323 391.398 187.19C390.895 187.056 390.519 187.014 390.159 187.006C389.799 187.006 389.381 187.006 388.837 187.089C388.569 187.123 388.276 187.198 387.941 187.223C387.615 187.281 387.28 187.348 386.845 187.356C386.895 186.948 387.037 186.606 387.196 186.247C387.397 185.931 387.623 185.614 387.908 185.355C388.493 184.838 389.339 184.48 390.251 184.505C391.172 184.53 392.034 184.98 392.553 185.597C393.071 186.222 393.364 186.973 393.256 187.79V187.798Z" fill="#414042"/>
<path d="M390.787 195.081C391.67 195.063 392.363 193.996 392.337 192.698C392.31 191.4 391.573 190.362 390.69 190.38C389.808 190.398 389.114 191.465 389.14 192.763C389.167 194.061 389.904 195.099 390.787 195.081Z" fill="#414042"/>
<path d="M263.324 208.791C263.324 208.791 256.21 207.507 255.524 208.95C254.846 210.392 259.491 213.81 259.491 213.81L263.324 208.791Z" fill="#DD6680"/>
<path d="M387.539 210.317C387.539 210.317 393.766 208.05 394.921 210.167C396.084 212.285 390.527 215.653 390.527 215.653C390.527 215.653 388.058 211.034 387.531 210.317H387.539Z" fill="#DD6680"/>
<path d="M291.653 325.889C294.256 325.998 296.851 326.281 299.437 326.64C302.023 326.99 304.592 327.465 307.136 328.04C309.681 328.641 312.208 329.333 314.652 330.291C317.054 331.267 319.556 332.401 321.264 334.41C320.31 333.518 319.188 332.859 318.025 332.317C316.861 331.759 315.665 331.283 314.434 330.892C311.982 330.083 309.48 329.424 306.952 328.849C304.433 328.257 301.881 327.765 299.336 327.265C298.064 327.015 296.784 326.79 295.503 326.565L291.653 325.881V325.889Z" fill="#E0A4AB"/>
<path d="M316.301 325.389C317.271 325.739 318.184 326.206 319.062 326.723C319.95 327.24 320.786 327.823 321.598 328.449C323.188 329.724 324.695 331.208 325.624 333.051C324.887 332.334 324.151 331.659 323.398 331C322.636 330.358 321.866 329.716 321.079 329.099C319.506 327.857 317.891 326.673 316.301 325.389Z" fill="#E0A4AB"/>
<path d="M326.419 315.643C327.842 316.226 329.156 317.077 330.353 318.052C331.558 319.019 332.662 320.12 333.65 321.304C334.613 322.513 335.525 323.771 336.228 325.147C336.621 325.814 336.906 326.531 337.232 327.223C337.517 327.94 337.768 328.665 338.002 329.391C337.24 328.057 336.504 326.731 335.675 325.472C334.872 324.197 333.96 322.996 333.014 321.829C332.068 320.662 331.022 319.578 329.934 318.536C328.829 317.51 327.691 316.51 326.427 315.643H326.419Z" fill="#E0A4AB"/>
<path d="M321.682 322.521C322.661 322.913 323.557 323.48 324.402 324.113C325.247 324.739 326.017 325.464 326.737 326.239C327.44 327.023 328.093 327.857 328.629 328.766C329.189 329.658 329.608 330.633 329.926 331.625C329.298 330.783 328.737 329.925 328.093 329.133C327.465 328.324 326.812 327.54 326.126 326.798C324.762 325.281 323.272 323.897 321.699 322.521H321.682Z" fill="#E0A4AB"/>
<path d="M325.8 320.278C327.708 321.304 329.348 322.763 330.771 324.397C331.474 325.222 332.119 326.098 332.671 327.031C333.24 327.948 333.667 328.957 334.002 329.974C333.366 329.099 332.771 328.224 332.127 327.39C331.482 326.556 330.838 325.731 330.135 324.939C329.457 324.138 328.746 323.355 328.018 322.588C327.29 321.82 326.561 321.053 325.8 320.286V320.278Z" fill="#E0A4AB"/>
<path d="M309.061 331.859C309.078 331.258 309.304 330.808 309.58 330.383C309.873 329.975 310.224 329.608 310.785 329.383C310.768 329.983 310.542 330.433 310.266 330.858C309.965 331.258 309.622 331.634 309.061 331.859Z" fill="#E0A4AB"/>
<path d="M312.618 334.018C312.702 333.36 312.986 332.851 313.321 332.376C313.681 331.917 314.083 331.5 314.694 331.234C314.61 331.892 314.325 332.401 313.991 332.876C313.631 333.335 313.229 333.752 312.618 334.018Z" fill="#E0A4AB"/>
<path d="M316.301 334.918C316.418 334.327 316.719 333.91 317.062 333.543C317.422 333.193 317.832 332.876 318.426 332.742C318.309 333.334 318.008 333.751 317.665 334.118C317.305 334.468 316.895 334.785 316.301 334.918Z" fill="#E0A4AB"/>
<path d="M233.755 194.935C232.91 195.152 231.981 194.885 231.228 194.418C230.475 193.926 229.88 193.226 229.437 192.459C228.976 191.7 228.65 190.808 228.642 189.866C228.633 188.924 229.043 187.923 229.822 187.306C230.575 186.681 231.73 186.439 232.667 186.923C233.136 187.156 233.487 187.565 233.705 187.99C233.923 188.415 234.065 188.84 234.149 189.299C234.308 190.191 234.257 191.133 233.856 191.975C233.755 192.184 233.621 192.375 233.446 192.542C233.27 192.7 233.019 192.842 232.759 192.801C232.224 192.709 232.023 192.234 231.855 191.858C232.09 192.192 232.408 192.584 232.768 192.575C233.119 192.559 233.345 192.167 233.471 191.808C233.722 191.058 233.688 190.208 233.496 189.441C233.278 188.674 232.935 187.907 232.307 187.64C231.696 187.331 230.901 187.498 230.341 187.957C229.755 188.398 229.454 189.132 229.42 189.891C229.395 190.658 229.621 191.442 229.989 192.175C230.357 192.909 230.826 193.593 231.454 194.126C232.081 194.643 232.893 194.985 233.755 194.952V194.935Z" fill="#E0A4AB"/>
<path d="M233.864 191.55C233.73 190.983 233.412 190.408 232.935 190.441C232.458 190.433 232.048 190.791 231.981 191.225C231.906 191.675 232.065 192.217 232.307 192.701C232.567 193.168 232.868 193.668 233.395 193.943C232.768 193.918 232.224 193.459 231.872 192.967C231.521 192.459 231.244 191.825 231.37 191.108C231.496 190.366 232.282 189.841 232.985 189.991C233.345 190.041 233.672 190.333 233.764 190.641C233.872 190.95 233.898 191.25 233.856 191.55H233.864Z" fill="#E0A4AB"/>
<path d="M389.849 190.941C390.242 190.499 390.703 190.308 391.171 190.174C391.649 190.066 392.142 190.016 392.703 190.208C392.31 190.65 391.849 190.841 391.381 190.975C390.904 191.083 390.41 191.133 389.849 190.941Z" fill="#414042"/>
</g>
</g>
<g clip-path="url(#clip3_1686_2904)">
<path d="M479.859 53.3838H276.798C271.336 53.3838 266.919 57.8012 266.919 63.263V111.953C266.919 117.415 271.336 121.832 276.798 121.832H293.875L294.087 139.262L316.075 121.832H479.859C485.321 121.832 489.738 117.415 489.738 111.953V63.263C489.738 57.8012 485.321 53.3838 479.859 53.3838Z" fill="#ED3E79"/>
<g opacity="0.8">
<path d="M468.074 73.6785H334.21C333.039 73.6785 332.094 72.7329 332.094 71.5615C332.094 70.3902 333.039 69.4446 334.21 69.4446H468.074C469.246 69.4446 470.191 70.3902 470.191 71.5615C470.191 72.7329 469.246 73.6785 468.074 73.6785Z" fill="#F2F2F2"/>
<path d="M468.074 87.326H334.211C333.039 87.326 332.094 86.3804 332.094 85.209C332.094 84.0376 333.039 83.092 334.211 83.092H468.074C469.246 83.092 470.191 84.0376 470.191 85.209C470.191 86.3804 469.246 87.326 468.074 87.326Z" fill="#F2F2F2"/>
<path d="M440.977 100.973H334.211C333.039 100.973 332.094 100.028 332.094 98.8565C332.094 97.6851 333.039 96.7395 334.211 96.7395H440.977C442.148 96.7395 443.094 97.6851 443.094 98.8565C443.094 100.028 442.148 100.973 440.977 100.973Z" fill="#F2F2F2"/>
</g>
<path d="M300.014 82.3722C303.966 82.3722 307.17 79.1687 307.17 75.2169C307.17 71.2651 303.966 68.0615 300.014 68.0615C296.062 68.0615 292.859 71.2651 292.859 75.2169C292.859 79.1687 296.062 82.3722 300.014 82.3722Z" fill="white"/>
<path d="M316.428 103.457C316.428 94.3967 309.089 87.0579 300.028 87.0579C290.968 87.0579 283.629 94.3967 283.629 103.457H316.442H316.428Z" fill="white"/>
</g>
<defs>
<clipPath id="clip0_1686_2904">
<rect width="598.827" height="394.576" fill="white" transform="translate(16.2472 199.609)"/>
</clipPath>
<clipPath id="clip1_1686_2904">
<rect width="629" height="526.875" fill="white" transform="translate(0 67.3098)"/>
</clipPath>
<clipPath id="clip2_1686_2904">
<rect width="259.956" height="445.638" fill="white" transform="translate(192.646 148.546)"/>
</clipPath>
<clipPath id="clip3_1686_2904">
<rect width="222.819" height="85.8782" fill="white" transform="translate(266.919 53.3838)"/>
</clipPath>
</defs>
</svg>
