<svg width="629" height="508" viewBox="0 0 629 508" fill="none" xmlns="http://www.w3.org/2000/svg">
<g clip-path="url(#clip0_1666_8712)">
<path d="M600.134 411.38V346.539H562.265V411.38H545.413V478.874H540.18V384.558H534.227V352.444H528.754V315.217H522.56V284.866H517.087V259.628H511.854L508.829 245.383H513.522V236.119H506.861L502.444 215.345L498.591 236.119H491.377V245.383H496.875L494.234 259.628H489.469V285.034H483.276V315.733H476.602V351.724H471.837V384.186H464.695V396.799H400.877V384.534H394.924V352.42H389.451V315.193H383.257V284.842H377.784V259.604H372.551L369.526 245.359H374.819V236.095H367.558L363.141 215.321L359.288 236.095H352.663V245.359H357.572L354.931 259.604H350.166V285.01H343.973V315.709H337.299V351.7H332.534V384.162H325.392V478.826H316.462V459.24H288.952V392.803L272.653 387.775V376.35L250.664 360.052L227.895 376.926V388.303L212.507 392.803V506.26H629.012V411.332H600.146L600.134 411.38ZM464.695 408.2V440.231H456.246V430.966H445.887V414.297H422.674V430.966H408.031V440.231H400.889V408.2H464.707H464.695Z" fill="#0C59B3"/>
<path d="M105.768 431.014L92.9367 431.218V398.263H84.5588V389.623H65.3786L56.1965 398.803V404.468L46.7384 413.925V503.872H39.9809V445.259H32.4192V437.158H9.72217V444.995H0V503.872V506.308H309.333V462.18L300.955 456.876V428.65L287.584 419.601V412.437L266.651 391.507H257.733V474.169H253.412V500.631H240.173V393.943H200.997V446.615H184.517V422.037H165.601V429.73H154.126L146.697 422.301V386.106L124 373.949L105.768 380.634V431.014Z" fill="#0C59B3"/>
<path d="M197.288 438.778C191.527 438.778 186.846 434.098 186.846 428.338V412.676C186.846 406.916 191.527 402.236 197.288 402.236V406.112C193.663 406.112 190.722 409.052 190.722 412.676V428.338C190.722 431.962 193.663 434.902 197.288 434.902V438.778Z" fill="#7A7B7C"/>
<path d="M346.733 369.929C346.733 369.929 347.165 392.755 349.554 408.14C351.942 423.525 356.239 474.637 356.239 474.637L374.411 473.905C374.411 473.905 373.115 450.731 376.02 438.886C378.924 427.042 380.317 387.366 373.739 372.497C367.162 357.628 346.733 369.929 346.733 369.929Z" fill="#FFCDC2"/>
<path d="M323.184 57.7125C323.184 57.7125 322.584 74.0217 320.747 82.3504C318.779 91.3151 319.175 104.168 333.614 106.724C347.705 109.209 359.132 94.1833 359.132 94.1833C359.132 94.1833 375.528 88.1709 371.171 74.1657C366.814 60.1606 347.105 39.831 337.551 43.3593C328.009 46.8876 323.184 57.7245 323.184 57.7245V57.7125Z" fill="#FFCDC2"/>
<path d="M326.965 53.6921L325.248 56.2483C325.248 56.2483 341.716 57.5204 350.01 65.5611C358.304 73.6017 355.603 83.1905 355.603 83.1905C355.603 83.1905 361.761 72.5336 364.821 79.1942C366.718 83.3105 363.297 88.9029 356.851 90.6911L353.743 97.7116C353.743 97.7116 375.948 98.3357 374.075 68.8733C374.075 68.8733 347.813 47.0316 340.024 47.7037C332.234 48.3757 326.977 53.6801 326.977 53.6801L326.965 53.6921Z" fill="#414042"/>
<path d="M308.145 376.05C308.145 376.05 307.664 397.615 309.441 412.22C311.217 426.826 313.462 475.225 313.462 475.225H331.646C331.646 475.225 331.286 453.312 334.658 442.247C338.031 431.182 341.008 393.787 335.031 379.506C329.053 365.225 308.145 376.062 308.145 376.062V376.05Z" fill="#FFCDC2"/>
<path d="M334.887 504.928H276.902C276.902 504.928 268.776 485.582 289.66 485.498C310.533 485.414 310.449 473.725 310.449 473.725C316.931 473.629 325.056 474.229 335.043 474.085L334.899 504.928H334.887Z" fill="#16242B"/>
<path d="M378.3 504.928H320.315C320.315 504.928 312.189 485.582 333.074 485.498C353.947 485.414 353.863 473.725 353.863 473.725C360.344 473.629 368.47 474.229 378.456 474.085L378.312 504.928H378.3Z" fill="#16242B"/>
<path d="M321.912 57.1244C321.912 57.1244 309.765 64.325 311.697 67.5172C313.63 70.7095 318.959 57.5925 332.186 61.5768C345.413 65.5611 348.954 74.7538 352.674 74.7298C356.383 74.7178 364.113 73.4697 364.113 73.4697C364.113 73.4697 349.41 45.5435 321.924 57.1124L321.912 57.1244Z" fill="#11937D"/>
<path d="M321.912 57.1245C321.912 57.1245 338.259 33.5786 355.027 43.2754C371.795 52.9721 360.188 73.6738 360.188 73.6738C360.188 73.6738 353.035 66.6292 346.001 61.6608C333.086 52.5521 321.912 57.1245 321.912 57.1245Z" fill="#22393D"/>
<path d="M245.155 284.014H240.029V373.841H245.155V284.014Z" fill="#979A9B"/>
<path d="M278.354 284.014H273.229V373.841H278.354V284.014Z" fill="#979A9B"/>
<path d="M239.201 285.526V270.465C239.201 268.317 240.786 266.589 242.73 266.589H276.133C278.078 266.589 279.662 268.329 279.662 270.465V285.526C279.662 287.675 278.078 289.403 276.133 289.403H275.101C273.157 289.403 271.572 287.663 271.572 285.526V280.63C271.572 278.482 269.988 276.754 268.044 276.754H249.788C247.843 276.754 246.259 278.494 246.259 280.63V285.526C246.259 287.675 244.674 289.403 242.73 289.403C240.786 289.403 239.201 287.663 239.201 285.526Z" fill="#7A7B7C"/>
<path d="M304.568 266.589C304.568 266.589 291.497 347.703 295.23 378.51C295.23 378.51 336.003 402.476 352.807 381.618C352.807 381.618 369.922 386.598 380.509 376.95C380.509 376.95 373.115 345.207 374.471 319.381C375.84 293.555 374.471 259.94 374.471 259.94L304.556 266.577L304.568 266.589Z" fill="#22393D"/>
<path d="M352.807 381.618C352.807 381.618 351.558 349.996 357.163 325.046C362.769 300.084 367.438 266.589 367.438 266.589" stroke="#121E21" stroke-linecap="round" stroke-linejoin="round"/>
<path d="M320.591 271.773C320.591 271.773 317.483 294.047 329.857 295.283L335.379 268.353L320.591 271.773Z" fill="#121E21"/>
<path d="M333.974 274.726C333.974 274.726 328.057 298.379 327.745 316.273C327.745 316.273 318.983 361.708 318.155 387.378" stroke="#121E21" stroke-linecap="round" stroke-linejoin="round"/>
<path d="M277.334 237.955C277.334 237.955 268.776 243.607 263.795 246.103C258.814 248.588 243.714 257.924 245.275 259.952C246.835 261.981 256.173 259.952 256.173 259.952C256.173 259.952 251.108 271.821 248.743 274.69C248.467 275.026 248.551 275.53 248.923 275.77C249.836 276.358 251.576 276.982 253.677 275.206C253.677 275.206 255.081 278.962 258.502 276.382C258.502 276.382 260.218 279.214 263.015 277.282C263.015 277.282 265.967 280.498 269.556 275.674C273.133 270.849 292.121 251.708 292.121 251.708L277.334 237.967V237.955Z" fill="#FFCDC2"/>
<path d="M324.12 118.221C324.12 118.221 312.069 137.111 308.709 173.21C305.36 209.308 296.67 271.365 296.67 271.365C296.67 271.365 365.973 286.15 385.886 278.338C385.886 278.338 390.867 247.291 392.523 244.387C394.18 241.483 410.996 148.212 394.6 131.11C378.204 114.009 355.699 97.8437 324.108 118.209L324.12 118.221Z" fill="#12B89F"/>
<path d="M352.086 41.9072C352.086 41.9072 381.877 47.6557 373.331 81.5584C373.331 81.5584 357.5 73.8537 352.975 66.1851C348.462 58.5285 352.086 41.9072 352.086 41.9072Z" fill="#121E21"/>
<path d="M398.717 149.628C398.717 149.628 389.139 129.178 370.138 122.818C370.138 122.818 337.359 142.739 342.34 157.884C347.321 173.03 373.667 207.88 379.272 226.974L375.948 237.967C375.948 237.967 371.387 225.93 365.781 217.433C360.176 208.924 334.863 176.15 329.881 169.297C324.9 162.457 322.62 149.592 329.881 131.746C337.143 113.901 364.329 105.608 379.056 109.341C393.784 113.073 395.044 126.094 395.044 126.094L403.494 139.067C403.494 139.067 400.169 141.971 398.717 149.652V149.628Z" fill="#121E21"/>
<path d="M324.12 118.221C324.12 118.221 326.461 109.725 335.475 104.864C343.072 100.76 378.42 87.9668 389.631 92.3232C400.841 96.6795 414.524 118.461 397.516 129.046C397.516 129.046 383.701 110.169 365.397 112.245C347.093 114.321 336.363 132.754 324.12 118.221Z" fill="#11937D"/>
<path d="M274.057 233.394C274.057 233.394 281.319 252.692 289.829 259.952C289.829 259.952 338.799 241.075 359.96 199.168C381.121 157.26 378.012 154.56 378.012 154.56C378.012 154.56 388.382 129.67 370.546 120.945C352.699 112.233 343.781 125.506 339.844 144.599C335.907 163.681 328.021 187.755 314.53 201.028C301.039 214.301 274.069 233.394 274.069 233.394H274.057Z" fill="#11937D"/>
<path d="M458.526 185.883C458.526 185.883 469.941 165.133 448.564 150.408C427.187 135.683 405.57 127.09 400.613 140.819C395.656 154.548 395.452 182.774 386.738 202.276C378.024 221.777 370.967 249.992 376.368 265.557C381.757 281.122 417.657 279.67 426.575 275.722C426.575 275.722 443.799 262.233 448.984 231.33C454.169 200.416 458.526 185.895 458.526 185.895V185.883Z" fill="#22393D"/>
<path d="M447.58 183.446C446.343 183.446 445.203 184.106 444.579 185.174C441.194 190.935 430.344 210.256 434.041 216.065C438.398 222.905 455.045 230.226 458.166 217.625C461.275 205.024 470.121 190.083 461.575 186.351C455.729 183.794 450.376 183.422 447.592 183.446H447.58Z" fill="#121E21"/>
<path d="M409.795 232.422C408.571 238.459 405.666 252.008 403.206 257.216C402.942 257.792 402.978 258.44 403.338 258.968C405.762 262.521 415.665 275.578 430.452 276.418C430.956 276.442 431.448 276.25 431.808 275.89C435.217 272.481 452.705 254.192 446.295 244.747C446.055 244.387 445.671 244.159 445.251 244.063C441.494 243.211 422.158 238.603 412.616 231.378C411.572 230.586 410.071 231.15 409.807 232.434L409.795 232.422Z" fill="#121E21"/>
<path d="M429.348 139.067C429.348 139.067 413.96 151.488 410.383 185.415H412.568C412.568 185.415 419.565 149.976 432.48 140.627L429.36 139.079L429.348 139.067Z" fill="#121E21"/>
<path d="M204.814 493.959H203.469C201.892 493.959 200.613 495.238 200.613 496.815V503.452C200.613 505.029 201.892 506.308 203.469 506.308H204.814C206.391 506.308 207.67 505.029 207.67 503.452V496.815C207.67 495.238 206.391 493.959 204.814 493.959Z" fill="#414042"/>
<path d="M303.055 493.959H301.711C300.133 493.959 298.854 495.238 298.854 496.815V503.452C298.854 505.029 300.133 506.308 301.711 506.308H303.055C304.633 506.308 305.912 505.029 305.912 503.452V496.815C305.912 495.238 304.633 493.959 303.055 493.959Z" fill="#414042"/>
<path d="M211.067 351.748H293.177C298.266 351.748 302.383 355.876 302.383 360.952V493.959H201.849V360.952C201.849 355.864 205.978 351.748 211.055 351.748H211.067Z" fill="#22393D"/>
<mask id="mask0_1666_8712" style="mask-type:luminance" maskUnits="userSpaceOnUse" x="201" y="351" width="102" height="143">
<path d="M211.067 351.748H293.177C298.266 351.748 302.383 355.876 302.383 360.952V493.959H201.849V360.952C201.849 355.864 205.978 351.748 211.055 351.748H211.067Z" fill="white"/>
</mask>
<g mask="url(#mask0_1666_8712)">
<path d="M296.154 347.079L172.598 471.865L228.927 456.624L335.067 365.753L296.154 347.079Z" fill="#DF307E"/>
<path d="M293.045 420.525L272.197 507.964H315.766L316.318 422.853L293.045 420.525Z" fill="#F2C3BB"/>
<path d="M229.239 344.283L318.563 408.08L313.594 440.747L184.733 363.269L229.239 344.283Z" fill="#FBB040"/>
<path d="M195.632 445.727H312.346V471.865H190.338L195.632 445.727Z" fill="#822ABC"/>
</g>
<path d="M203.013 477.469H205.678C208.834 477.469 211.403 480.038 211.403 483.194V496.143H197.288V483.194C197.288 480.038 199.856 477.469 203.013 477.469Z" fill="#979A9B"/>
<path d="M301.051 477.469H303.716C306.872 477.469 309.441 480.038 309.441 483.194V496.143H295.326V483.194C295.326 480.038 297.894 477.469 301.051 477.469Z" fill="#979A9B"/>
<path d="M285.267 386.598H273.853V393.235H285.267V386.598Z" fill="#979A9B"/>
<path d="M201.849 398.635H195.211V410.048H201.849V398.635Z" fill="#979A9B"/>
<path d="M201.849 432.034H195.211V443.447H201.849V432.034Z" fill="#979A9B"/>
<path d="M312.19 321.721L305.804 346.767L338.487 351.748C338.487 351.748 340.816 325.922 341.752 323.269C342.688 320.617 312.19 321.709 312.19 321.709V321.721Z" fill="#121E21"/>
<path d="M312.658 313.477L309.237 323.125L342.22 327.782L346.265 316.585L312.658 313.477Z" fill="#040607"/>
<path d="M312.658 312.541L309.237 322.189L342.22 326.858L346.265 315.649L312.658 312.541Z" fill="#121E21"/>
<path d="M253.676 275.194C254.481 273.321 255.357 271.545 256.197 269.745C256.629 268.845 257.037 267.945 257.457 267.045C257.877 266.145 258.261 265.221 258.718 264.309C258.513 266.337 257.841 268.281 256.989 270.117C256.545 271.029 256.077 271.929 255.525 272.781C254.985 273.633 254.385 274.462 253.688 275.206L253.676 275.194Z" fill="#F2C3BB"/>
<path d="M258.501 276.37C259.198 274.498 260.026 272.721 260.794 270.921C261.574 269.121 262.318 267.345 262.954 265.449C262.991 266.457 262.822 267.465 262.57 268.437C262.33 269.409 261.97 270.345 261.586 271.269C261.178 272.181 260.734 273.069 260.218 273.934C259.702 274.786 259.15 275.626 258.49 276.382L258.501 276.37Z" fill="#F2C3BB"/>
<path d="M263.015 277.27C263.555 275.662 264.275 274.174 265.007 272.697C265.763 271.221 266.531 269.781 267.42 268.341C267.168 270.021 266.519 271.593 265.775 273.081C265.007 274.57 264.143 275.998 263.003 277.258L263.015 277.27Z" fill="#F2C3BB"/>
<path d="M340.288 74.3217C340.276 73.4937 340.66 72.7736 341.284 72.2216C341.908 71.6695 342.928 71.3815 343.853 71.5975C344.789 71.8015 345.437 72.3776 345.905 72.9896C346.109 73.3136 346.265 73.6617 346.385 74.0097C346.469 74.3817 346.541 74.7538 346.517 75.1618C346.097 75.0538 345.785 74.9098 345.485 74.7778C345.185 74.6458 344.885 74.5377 344.645 74.4057C344.117 74.2137 343.696 74.0217 343.348 73.9617C343 73.8897 342.676 73.8417 342.172 73.9017C341.668 73.9617 341.068 74.1297 340.3 74.3337L340.288 74.3217Z" fill="#414042"/>
<path d="M324.42 72.8096C324.408 71.9816 324.792 71.2615 325.416 70.7095C326.041 70.1574 327.061 69.8694 327.985 70.0854C328.921 70.2894 329.569 70.8655 330.037 71.4775C330.241 71.8016 330.398 72.1496 330.518 72.4976C330.602 72.8696 330.674 73.2417 330.65 73.6497C330.229 73.5417 329.917 73.3977 329.617 73.2657C329.317 73.1337 329.017 73.0257 328.777 72.8936C328.249 72.7016 327.829 72.5096 327.481 72.4496C327.133 72.3776 326.809 72.3296 326.305 72.3896C325.8 72.4496 325.2 72.6176 324.432 72.8216L324.42 72.8096Z" fill="#414042"/>
<path d="M343.888 81.1704C344.254 80.0559 343.836 78.9175 342.955 78.6279C342.073 78.3382 341.061 79.0069 340.695 80.1214C340.329 81.2359 340.746 82.3742 341.628 82.6639C342.51 82.9536 343.521 82.2849 343.888 81.1704Z" fill="#414042"/>
<path d="M328.202 78.1652C328.569 77.0507 328.151 75.9124 327.269 75.6227C326.387 75.3331 325.376 76.0018 325.01 77.1163C324.643 78.2308 325.061 79.3691 325.943 79.6588C326.824 79.9484 327.836 79.2798 328.202 78.1652Z" fill="#414042"/>
<path d="M333.446 79.7341C333.458 81.5823 333.086 83.2624 332.81 84.7865C332.738 85.1586 332.702 85.5306 332.702 85.7466C332.702 85.7706 332.714 85.9986 332.738 86.1666L332.786 86.6467C332.81 86.9467 332.846 87.2227 332.942 87.6067L333.374 88.9148C332.834 88.9628 332.318 88.8668 331.85 88.6028C331.37 88.3628 330.95 87.8948 330.698 87.3907C330.565 87.1387 330.481 86.8867 330.409 86.6347C330.349 86.3947 330.301 86.2026 330.289 85.7946C330.289 85.1586 330.409 84.6905 330.553 84.2345C330.83 83.3344 331.226 82.5424 331.694 81.7983C332.186 81.0542 332.726 80.3462 333.434 79.7341H333.446Z" fill="#E0A4AB"/>
<path d="M326.917 94.0393C328.021 94.3034 328.945 94.4954 329.857 94.6394C330.758 94.7834 331.61 94.9034 332.486 94.9394C333.35 94.9634 334.226 95.0234 335.163 94.9754C335.631 94.9994 336.099 94.9274 336.615 94.9514C337.119 94.9514 337.635 94.9034 338.223 94.9634C337.887 95.4195 337.491 95.8035 337.059 96.1515C336.603 96.4515 336.147 96.7876 335.631 96.9676C334.61 97.4236 333.47 97.5796 332.33 97.5316C331.19 97.4716 330.073 97.1116 329.113 96.5235C328.165 95.9355 327.325 95.1074 326.941 94.0273L326.917 94.0393Z" fill="#EA7185"/>
<path d="M356.839 86.5748C356.887 86.9948 357.091 87.4388 357.5 87.6788C357.896 87.9309 358.412 87.9069 358.832 87.7869C359.696 87.5228 360.416 87.0188 361.088 86.4667C361.772 85.9027 362.325 85.1586 362.697 84.3186C363.057 83.4785 363.189 82.5064 362.985 81.5704C362.877 81.1023 362.661 80.6463 362.301 80.2743C361.953 79.9022 361.388 79.6502 360.86 79.7342C360.332 79.7942 359.9 80.1062 359.564 80.4063C359.228 80.7063 358.94 81.0543 358.688 81.4263C358.196 82.1704 357.848 82.9985 357.716 83.8865C357.692 84.3186 357.632 84.8346 357.992 85.2187C358.196 85.3987 358.484 85.3627 358.676 85.2667C358.88 85.1706 359.036 85.0266 359.204 84.8946C359.024 85.0026 358.832 85.1106 358.64 85.1586C358.448 85.2186 358.244 85.1946 358.148 85.0626C357.944 84.7866 358.016 84.3306 358.1 83.9465C358.292 83.1545 358.676 82.4104 359.18 81.7744C359.684 81.1743 360.32 80.5263 360.932 80.4663C361.544 80.3943 362.061 81.0183 362.217 81.7384C362.565 83.2265 361.82 84.8586 360.668 85.9627C360.08 86.5267 359.432 87.0668 358.7 87.3668C358.34 87.5228 357.944 87.5948 357.584 87.4388C357.235 87.2948 356.959 86.9348 356.827 86.5267L356.839 86.5748Z" fill="#E0A4AB"/>
<path d="M357.944 83.5025C358.304 83.0825 358.868 82.6024 359.18 82.9145C359.516 83.1905 359.588 83.7665 359.42 84.2106C359.264 84.6786 358.916 85.1107 358.508 85.4587C358.088 85.7827 357.62 86.1427 357.031 86.0827C357.284 86.2627 357.62 86.2507 357.92 86.2027C358.22 86.1427 358.508 86.0227 358.772 85.8547C359.3 85.5307 359.756 85.0386 359.972 84.3906C360.176 83.7545 360.056 82.9265 359.396 82.5304C359.24 82.4464 359.036 82.3984 358.844 82.4464C358.664 82.4944 358.52 82.6025 358.412 82.7105C358.196 82.9385 358.04 83.2025 357.944 83.4905V83.5025Z" fill="#E0A4AB"/>
<path d="M629 504.616H0V508H629V504.616Z" fill="#C7C7C7"/>
<path d="M18.6521 48.5079H183.941C183.941 48.5079 181.612 25.118 161.736 30.5185C141.86 35.9189 144.416 -3.48022 115.562 9.80483C93.0687 20.1616 76.3609 -18.6854 59.4252 12.169C44.1098 40.0712 28.9264 16.4173 18.6521 48.5079Z" fill="#0C59B3"/>
<path d="M224.246 186.627H115.634C115.634 186.627 117.158 170.773 130.217 174.434C143.276 178.094 141.596 151.392 160.56 160.405C175.347 167.425 186.318 141.095 197.444 162.001C207.502 180.902 217.476 164.881 224.234 186.627H224.246Z" fill="#0C59B3"/>
<path d="M601.886 56.2365H493.274C493.274 56.2365 494.798 40.3832 507.857 44.0435C520.916 47.7038 519.235 21.0017 538.2 30.0144C552.987 37.035 563.957 10.7049 575.084 31.6105C585.142 50.512 595.116 34.4908 601.874 56.2365H601.886Z" fill="#0C59B3"/>
</g>
<defs>
<clipPath id="clip0_1666_8712">
<rect width="629" height="508" fill="white"/>
</clipPath>
</defs>
</svg>
