<svg width="44" height="44" viewBox="0 0 44 44" fill="none" xmlns="http://www.w3.org/2000/svg">
<path fill-rule="evenodd" clip-rule="evenodd" d="M15.6545 3.91363H3.91363V15.6545H15.6545V3.91363ZM0 0V19.5681H19.5681V0H0ZM15.6545 27.3954H3.91363V39.1363H15.6545V27.3954ZM0 23.4818V43.0499H19.5681V23.4818H0ZM27.3954 3.91363H39.1363V15.6545H27.3954V3.91363ZM23.4818 19.5681V0H43.0499V19.5681H23.4818ZM23.4818 35.2226V23.4818H27.3954V35.2226H23.4818ZM7.82725 7.82725V11.7409H11.7409V7.82725H7.82725ZM7.82725 35.2226V31.309H11.7409V35.2226H7.82725ZM31.309 7.82725V11.7409H35.2226V7.82725H31.309ZM39.1363 43.0499V37.1794H43.0499V43.0499H39.1363ZM39.1363 23.4818V29.3522H35.2226V23.4818H31.309V39.1363H23.4818V43.0499H35.2226V33.2658H43.0499V29.3522V23.4818H39.1363Z" fill="#0C59B3"/>
</svg>
