<svg width="52" height="38" viewBox="0 0 52 38" fill="none" xmlns="http://www.w3.org/2000/svg">
<path d="M36.7382 13.5648C33.9286 13.5648 31.6514 15.8421 31.6514 18.6516C31.6514 21.4612 33.9286 23.7384 36.7382 23.7384H51.9986V13.5648H36.7382ZM36.7382 20.3472C35.8018 20.3472 35.0425 19.588 35.0425 18.6515C35.0425 17.715 35.8017 16.9559 36.7382 16.9559C37.6747 16.9559 38.4338 17.715 38.4338 18.6515C38.4338 19.588 37.6747 20.3472 36.7382 20.3472Z" fill="#0C59B3"/>
<path d="M36.738 10.1736H45.216V5.08681C45.216 2.28184 42.9342 0 40.1292 0H1.69564C0.759564 0 0 0.759463 0 1.69554V35.6076C0 36.5437 0.759564 37.3032 1.69564 37.3032H40.1292C42.9342 37.3032 45.216 35.0214 45.216 32.2164V27.1296H36.738C32.0631 27.1296 28.2601 23.3266 28.2601 18.6516C28.2601 13.9766 32.0631 10.1736 36.738 10.1736Z" fill="#0C59B3"/>
<path d="M46.9135 0H46.8975C47.9668 1.41909 48.6091 3.17699 48.6091 5.08681V10.1736H52.0003V5.08681C52.0003 2.28184 49.7185 0 46.9135 0Z" fill="#0C59B3"/>
<path d="M48.6091 27.1295V32.2163C48.6091 34.1262 47.967 35.8841 46.8975 37.3031H46.9135C49.7185 37.3031 52.0003 35.0213 52.0003 32.2163V27.1295H48.6091Z" fill="#0C59B3"/>
</svg>
